<mxfile host="Electron" agent="Mozilla/5.0 (Windows NT 10.0; Win64; x64) AppleWebKit/537.36 (KHTML, like Gecko) draw.io/26.0.4 Chrome/128.0.6613.186 Electron/32.2.5 Safari/537.36" version="26.0.4">
  <diagram name="Page-1" id="8i68x7rO6XkphoQHgysK">
    <mxGraphModel dx="5825" dy="1953" grid="0" gridSize="10" guides="1" tooltips="1" connect="1" arrows="1" fold="1" page="0" pageScale="1" pageWidth="850" pageHeight="1100" math="0" shadow="0">
      <root>
        <mxCell id="0" />
        <mxCell id="1" parent="0" />
        <mxCell id="W3CPAuRqWTJg_mLWyuju-236" value="Khách hàng nhập tên, email, mật khẩu" style="curved=1;startArrow=none;;entryX=0.5;entryY=0;rounded=0;labelBackgroundColor=none;strokeColor=#A8201A;fontColor=default;" edge="1" parent="1">
          <mxGeometry relative="1" as="geometry">
            <Array as="points" />
            <mxPoint x="590" y="-28" as="sourcePoint" />
            <mxPoint x="438" y="-200" as="targetPoint" />
          </mxGeometry>
        </mxCell>
        <mxCell id="W3CPAuRqWTJg_mLWyuju-255" value="" style="whiteSpace=wrap;strokeWidth=2;labelBackgroundColor=none;fillColor=#FAE5C7;strokeColor=#0F8B8D;fontColor=#143642;" vertex="1" parent="1">
          <mxGeometry x="-53" y="1411" width="608" height="635" as="geometry" />
        </mxCell>
        <mxCell id="W3CPAuRqWTJg_mLWyuju-256" value="" style="whiteSpace=wrap;strokeWidth=2;labelBackgroundColor=none;fillColor=#FAE5C7;strokeColor=#0F8B8D;fontColor=#143642;" vertex="1" parent="1">
          <mxGeometry x="91" y="1219" width="330" height="128" as="geometry" />
        </mxCell>
        <mxCell id="W3CPAuRqWTJg_mLWyuju-257" value="Người dùng nhập thông tin đăng ký" style="fillColor=none;strokeColor=none;labelBackgroundColor=none;fontColor=#143642;" vertex="1" parent="1">
          <mxGeometry x="125" y="1240" width="260" height="78" as="geometry" />
        </mxCell>
        <mxCell id="W3CPAuRqWTJg_mLWyuju-258" value="Kiểm tra tính hợp lệ của thông tin" style="fillColor=none;strokeColor=none;labelBackgroundColor=none;fontColor=#143642;" vertex="1" parent="1">
          <mxGeometry x="126" y="1436" width="260" height="78" as="geometry" />
        </mxCell>
        <mxCell id="W3CPAuRqWTJg_mLWyuju-259" value="Thông tin hợp lệ?" style="rhombus;strokeWidth=2;whiteSpace=wrap;labelBackgroundColor=none;fillColor=#FAE5C7;strokeColor=#0F8B8D;fontColor=#143642;" vertex="1" parent="1">
          <mxGeometry x="167" y="1564" width="179" height="179" as="geometry" />
        </mxCell>
        <mxCell id="W3CPAuRqWTJg_mLWyuju-260" value="Lưu thông tin vào cơ sở dữ liệu" style="fillColor=none;strokeColor=none;labelBackgroundColor=none;fontColor=#143642;" vertex="1" parent="1">
          <mxGeometry x="-18" y="1815" width="260" height="78" as="geometry" />
        </mxCell>
        <mxCell id="W3CPAuRqWTJg_mLWyuju-261" value="Hiển thị thông báo đăng ký thành công" style="fillColor=none;strokeColor=none;labelBackgroundColor=none;fontColor=#143642;" vertex="1" parent="1">
          <mxGeometry x="-18" y="1943" width="260" height="78" as="geometry" />
        </mxCell>
        <mxCell id="W3CPAuRqWTJg_mLWyuju-262" value="Hiển thị thông báo lỗi" style="fillColor=none;strokeColor=none;labelBackgroundColor=none;fontColor=#143642;" vertex="1" parent="1">
          <mxGeometry x="292" y="1827" width="217" height="54" as="geometry" />
        </mxCell>
        <mxCell id="W3CPAuRqWTJg_mLWyuju-263" value="" style="curved=1;startArrow=circle;startFill=0;endArrow=circle;endFill=0;entryX=0.5;entryY=0;rounded=0;labelBackgroundColor=none;strokeColor=#A8201A;fontColor=default;" edge="1" parent="1" source="W3CPAuRqWTJg_mLWyuju-257" target="W3CPAuRqWTJg_mLWyuju-258">
          <mxGeometry relative="1" as="geometry">
            <Array as="points" />
          </mxGeometry>
        </mxCell>
        <mxCell id="W3CPAuRqWTJg_mLWyuju-264" value="" style="curved=1;startArrow=none;endArrow=block;exitX=0.5;exitY=1;entryX=0.5;entryY=0;rounded=0;labelBackgroundColor=none;strokeColor=#A8201A;fontColor=default;" edge="1" parent="1" source="W3CPAuRqWTJg_mLWyuju-258" target="W3CPAuRqWTJg_mLWyuju-259">
          <mxGeometry relative="1" as="geometry">
            <Array as="points" />
          </mxGeometry>
        </mxCell>
        <mxCell id="W3CPAuRqWTJg_mLWyuju-265" value="Có" style="curved=1;startArrow=none;endArrow=circle;endFill=0;exitX=0;exitY=0.94;entryX=0.5;entryY=0.01;rounded=0;labelBackgroundColor=none;strokeColor=#A8201A;fontColor=default;" edge="1" parent="1" source="W3CPAuRqWTJg_mLWyuju-259" target="W3CPAuRqWTJg_mLWyuju-260">
          <mxGeometry relative="1" as="geometry">
            <Array as="points">
              <mxPoint x="112" y="1779" />
            </Array>
          </mxGeometry>
        </mxCell>
        <mxCell id="W3CPAuRqWTJg_mLWyuju-266" value="" style="curved=1;startArrow=none;endArrow=circle;endFill=0;exitX=0.5;exitY=1.01;entryX=0.5;entryY=0.01;rounded=0;labelBackgroundColor=none;strokeColor=#A8201A;fontColor=default;" edge="1" parent="1" source="W3CPAuRqWTJg_mLWyuju-260" target="W3CPAuRqWTJg_mLWyuju-261">
          <mxGeometry relative="1" as="geometry">
            <Array as="points" />
          </mxGeometry>
        </mxCell>
        <mxCell id="W3CPAuRqWTJg_mLWyuju-267" value="Không" style="curved=1;startArrow=none;endArrow=circle;endFill=0;exitX=1;exitY=0.94;entryX=0.5;entryY=0.01;rounded=0;labelBackgroundColor=none;strokeColor=#A8201A;fontColor=default;" edge="1" parent="1" source="W3CPAuRqWTJg_mLWyuju-259" target="W3CPAuRqWTJg_mLWyuju-262">
          <mxGeometry relative="1" as="geometry">
            <Array as="points">
              <mxPoint x="401" y="1779" />
            </Array>
          </mxGeometry>
        </mxCell>
        <mxCell id="W3CPAuRqWTJg_mLWyuju-288" value="NGƯỜI DÙNG" style="text;align=center;fontStyle=1;verticalAlign=middle;spacingLeft=3;spacingRight=3;strokeColor=#0F8B8D;rotatable=0;points=[[0,0.5],[1,0.5]];portConstraint=eastwest;html=1;fontSize=17;fillColor=#FAE5C7;labelBackgroundColor=none;fontColor=#143642;" vertex="1" parent="1">
          <mxGeometry x="151.5" y="1193" width="209" height="26" as="geometry" />
        </mxCell>
        <mxCell id="W3CPAuRqWTJg_mLWyuju-289" value="&lt;font style=&quot;font-size: 18px;&quot;&gt;HỆ THỐNG&lt;/font&gt;" style="text;align=center;fontStyle=1;verticalAlign=middle;spacingLeft=3;spacingRight=3;strokeColor=#0F8B8D;rotatable=0;points=[[0,0.5],[1,0.5]];portConstraint=eastwest;html=1;fillColor=#FAE5C7;labelBackgroundColor=none;fontColor=#143642;" vertex="1" parent="1">
          <mxGeometry x="125" y="2046" width="259.5" height="26" as="geometry" />
        </mxCell>
        <mxCell id="W3CPAuRqWTJg_mLWyuju-307" value="Hệ thống" style="whiteSpace=wrap;strokeWidth=2;labelBackgroundColor=none;fillColor=#FAE5C7;strokeColor=#0F8B8D;fontColor=#143642;" vertex="1" parent="1">
          <mxGeometry x="514" y="2348" width="587" height="483" as="geometry" />
        </mxCell>
        <mxCell id="W3CPAuRqWTJg_mLWyuju-308" value="" style="whiteSpace=wrap;strokeWidth=2;labelBackgroundColor=none;fillColor=#FAE5C7;strokeColor=#0F8B8D;fontColor=#143642;" vertex="1" parent="1">
          <mxGeometry x="651" y="2194" width="317" height="104" as="geometry" />
        </mxCell>
        <mxCell id="W3CPAuRqWTJg_mLWyuju-309" value="Nhập thông tin đăng nhập" style="fillColor=none;strokeColor=none;labelBackgroundColor=none;fontColor=#143642;" vertex="1" parent="1">
          <mxGeometry x="684" y="2226" width="247" height="54" as="geometry" />
        </mxCell>
        <mxCell id="W3CPAuRqWTJg_mLWyuju-310" value="Kiểm tra thông tin tài khoản" style="fillColor=none;strokeColor=none;labelBackgroundColor=none;fontColor=#143642;" vertex="1" parent="1">
          <mxGeometry x="679" y="2373" width="260" height="78" as="geometry" />
        </mxCell>
        <mxCell id="W3CPAuRqWTJg_mLWyuju-311" value="Thông tin hợp lệ?" style="rhombus;strokeWidth=2;whiteSpace=wrap;labelBackgroundColor=none;fillColor=#FAE5C7;strokeColor=#0F8B8D;fontColor=#143642;" vertex="1" parent="1">
          <mxGeometry x="720" y="2501" width="179" height="179" as="geometry" />
        </mxCell>
        <mxCell id="W3CPAuRqWTJg_mLWyuju-312" value="Hiển thị giao diện chính" style="fillColor=none;strokeColor=none;labelBackgroundColor=none;fontColor=#143642;" vertex="1" parent="1">
          <mxGeometry x="556" y="2752" width="232" height="54" as="geometry" />
        </mxCell>
        <mxCell id="W3CPAuRqWTJg_mLWyuju-313" value="Hiển thị thông báo lỗi" style="fillColor=none;strokeColor=none;labelBackgroundColor=none;fontColor=#143642;" vertex="1" parent="1">
          <mxGeometry x="838" y="2752" width="217" height="54" as="geometry" />
        </mxCell>
        <mxCell id="W3CPAuRqWTJg_mLWyuju-314" value="" style="curved=1;startArrow=circle;startFill=0;endArrow=circle;endFill=0;exitX=0.5;exitY=1;entryX=0.5;entryY=0;rounded=0;labelBackgroundColor=none;strokeColor=#A8201A;fontColor=default;" edge="1" parent="1" source="W3CPAuRqWTJg_mLWyuju-309" target="W3CPAuRqWTJg_mLWyuju-310">
          <mxGeometry relative="1" as="geometry">
            <Array as="points" />
          </mxGeometry>
        </mxCell>
        <mxCell id="W3CPAuRqWTJg_mLWyuju-315" value="" style="curved=1;startArrow=none;endArrow=block;exitX=0.5;exitY=1;entryX=0.5;entryY=0;rounded=0;labelBackgroundColor=none;strokeColor=#A8201A;fontColor=default;" edge="1" parent="1" source="W3CPAuRqWTJg_mLWyuju-310" target="W3CPAuRqWTJg_mLWyuju-311">
          <mxGeometry relative="1" as="geometry">
            <Array as="points" />
          </mxGeometry>
        </mxCell>
        <mxCell id="W3CPAuRqWTJg_mLWyuju-316" value="Có" style="curved=1;startArrow=none;endArrow=circle;endFill=0;exitX=0;exitY=0.96;entryX=0.5;entryY=0.01;rounded=0;labelBackgroundColor=none;strokeColor=#A8201A;fontColor=default;" edge="1" parent="1" source="W3CPAuRqWTJg_mLWyuju-311" target="W3CPAuRqWTJg_mLWyuju-312">
          <mxGeometry relative="1" as="geometry">
            <Array as="points">
              <mxPoint x="672" y="2716" />
            </Array>
          </mxGeometry>
        </mxCell>
        <mxCell id="W3CPAuRqWTJg_mLWyuju-317" value="Không" style="curved=1;startArrow=none;endArrow=circle;endFill=0;exitX=1;exitY=0.96;entryX=0.5;entryY=0.01;rounded=0;labelBackgroundColor=none;strokeColor=#A8201A;fontColor=default;" edge="1" parent="1" source="W3CPAuRqWTJg_mLWyuju-311" target="W3CPAuRqWTJg_mLWyuju-313">
          <mxGeometry relative="1" as="geometry">
            <Array as="points">
              <mxPoint x="947" y="2716" />
            </Array>
          </mxGeometry>
        </mxCell>
        <mxCell id="W3CPAuRqWTJg_mLWyuju-318" value="NGƯỜI DÙNG" style="text;align=center;fontStyle=1;verticalAlign=middle;spacingLeft=3;spacingRight=3;strokeColor=#0F8B8D;rotatable=0;points=[[0,0.5],[1,0.5]];portConstraint=eastwest;html=1;fontSize=17;fillColor=#FAE5C7;labelBackgroundColor=none;fontColor=#143642;" vertex="1" parent="1">
          <mxGeometry x="704.5" y="2168" width="209" height="26" as="geometry" />
        </mxCell>
        <mxCell id="W3CPAuRqWTJg_mLWyuju-319" value="&lt;font style=&quot;font-size: 18px;&quot;&gt;HỆ THỐNG&lt;/font&gt;" style="text;align=center;fontStyle=1;verticalAlign=middle;spacingLeft=3;spacingRight=3;strokeColor=#0F8B8D;rotatable=0;points=[[0,0.5],[1,0.5]];portConstraint=eastwest;html=1;fillColor=#FAE5C7;labelBackgroundColor=none;fontColor=#143642;" vertex="1" parent="1">
          <mxGeometry x="684" y="2831" width="259.5" height="26" as="geometry" />
        </mxCell>
        <mxCell id="W3CPAuRqWTJg_mLWyuju-320" value="Hệ thống" style="whiteSpace=wrap;strokeWidth=2;fillColor=#FAE5C7;strokeColor=#0F8B8D;labelBackgroundColor=none;fontColor=#143642;" vertex="1" parent="1">
          <mxGeometry x="20" y="3255" width="575" height="620" as="geometry" />
        </mxCell>
        <mxCell id="W3CPAuRqWTJg_mLWyuju-321" value="" style="whiteSpace=wrap;strokeWidth=2;fillColor=#FAE5C7;strokeColor=#0F8B8D;labelBackgroundColor=none;fontColor=#143642;" vertex="1" parent="1">
          <mxGeometry x="148" y="3077" width="330" height="128" as="geometry" />
        </mxCell>
        <mxCell id="W3CPAuRqWTJg_mLWyuju-322" value="Nhập mật khẩu cũ và mật khẩu mới" style="fillColor=none;strokeColor=none;labelBackgroundColor=none;fontColor=#143642;" vertex="1" parent="1">
          <mxGeometry x="183" y="3106" width="260" height="78" as="geometry" />
        </mxCell>
        <mxCell id="W3CPAuRqWTJg_mLWyuju-323" value="Kiểm tra tính hợp lệ của mật khẩu cũ" style="fillColor=none;strokeColor=none;labelBackgroundColor=none;fontColor=#143642;" vertex="1" parent="1">
          <mxGeometry x="183" y="3280" width="260" height="78" as="geometry" />
        </mxCell>
        <mxCell id="W3CPAuRqWTJg_mLWyuju-324" value="Mật khẩu cũ đúng?" style="rhombus;strokeWidth=2;whiteSpace=wrap;labelBackgroundColor=none;fillColor=#FAE5C7;strokeColor=#0F8B8D;fontColor=#143642;" vertex="1" parent="1">
          <mxGeometry x="219" y="3408" width="188" height="188" as="geometry" />
        </mxCell>
        <mxCell id="W3CPAuRqWTJg_mLWyuju-325" value="Lưu mật khẩu mới" style="fillColor=none;strokeColor=none;labelBackgroundColor=none;fontColor=#143642;" vertex="1" parent="1">
          <mxGeometry x="88" y="3668" width="194" height="54" as="geometry" />
        </mxCell>
        <mxCell id="W3CPAuRqWTJg_mLWyuju-326" value="Hiển thị thông báo thay đổi thành công" style="fillColor=none;strokeColor=none;labelBackgroundColor=none;fontColor=#143642;" vertex="1" parent="1">
          <mxGeometry x="55" y="3772" width="260" height="78" as="geometry" />
        </mxCell>
        <mxCell id="W3CPAuRqWTJg_mLWyuju-327" value="Hiển thị thông báo lỗi" style="fillColor=none;strokeColor=none;labelBackgroundColor=none;fontColor=#143642;" vertex="1" parent="1">
          <mxGeometry x="332" y="3668" width="217" height="54" as="geometry" />
        </mxCell>
        <mxCell id="W3CPAuRqWTJg_mLWyuju-328" value="" style="curved=1;startArrow=circle;startFill=0;endArrow=circle;endFill=0;exitX=0.5;exitY=1;entryX=0.5;entryY=0;rounded=0;labelBackgroundColor=none;strokeColor=#A8201A;fontColor=default;" edge="1" parent="1" source="W3CPAuRqWTJg_mLWyuju-322" target="W3CPAuRqWTJg_mLWyuju-323">
          <mxGeometry relative="1" as="geometry">
            <Array as="points" />
          </mxGeometry>
        </mxCell>
        <mxCell id="W3CPAuRqWTJg_mLWyuju-329" value="" style="curved=1;startArrow=none;endArrow=block;exitX=0.5;exitY=1;entryX=0.5;entryY=0;rounded=0;labelBackgroundColor=none;strokeColor=#A8201A;fontColor=default;" edge="1" parent="1" source="W3CPAuRqWTJg_mLWyuju-323" target="W3CPAuRqWTJg_mLWyuju-324">
          <mxGeometry relative="1" as="geometry">
            <Array as="points" />
          </mxGeometry>
        </mxCell>
        <mxCell id="W3CPAuRqWTJg_mLWyuju-330" value="Có" style="curved=1;startArrow=none;endArrow=circle;endFill=0;exitX=0.01;exitY=1;entryX=0.5;entryY=0.01;rounded=0;labelBackgroundColor=none;strokeColor=#A8201A;fontColor=default;" edge="1" parent="1" source="W3CPAuRqWTJg_mLWyuju-324" target="W3CPAuRqWTJg_mLWyuju-325">
          <mxGeometry relative="1" as="geometry">
            <Array as="points">
              <mxPoint x="185" y="3632" />
            </Array>
          </mxGeometry>
        </mxCell>
        <mxCell id="W3CPAuRqWTJg_mLWyuju-331" value="" style="curved=1;startArrow=none;endArrow=circle;endFill=0;exitX=0.5;exitY=1.01;entryX=0.5;entryY=0;rounded=0;labelBackgroundColor=none;strokeColor=#A8201A;fontColor=default;" edge="1" parent="1" source="W3CPAuRqWTJg_mLWyuju-325" target="W3CPAuRqWTJg_mLWyuju-326">
          <mxGeometry relative="1" as="geometry">
            <Array as="points" />
          </mxGeometry>
        </mxCell>
        <mxCell id="W3CPAuRqWTJg_mLWyuju-332" value="Không" style="curved=1;startArrow=none;endArrow=circle;endFill=0;exitX=0.99;exitY=1;entryX=0.5;entryY=0.01;rounded=0;labelBackgroundColor=none;strokeColor=#A8201A;fontColor=default;" edge="1" parent="1" source="W3CPAuRqWTJg_mLWyuju-324" target="W3CPAuRqWTJg_mLWyuju-327">
          <mxGeometry relative="1" as="geometry">
            <Array as="points">
              <mxPoint x="441" y="3632" />
            </Array>
          </mxGeometry>
        </mxCell>
        <mxCell id="W3CPAuRqWTJg_mLWyuju-333" value="NGƯỜI DÙNG" style="text;align=center;fontStyle=1;verticalAlign=middle;spacingLeft=3;spacingRight=3;strokeColor=#0F8B8D;rotatable=0;points=[[0,0.5],[1,0.5]];portConstraint=eastwest;html=1;fontSize=17;fillColor=#FAE5C7;labelBackgroundColor=none;fontColor=#143642;" vertex="1" parent="1">
          <mxGeometry x="208.5" y="3051" width="209" height="26" as="geometry" />
        </mxCell>
        <mxCell id="W3CPAuRqWTJg_mLWyuju-334" value="&lt;font style=&quot;font-size: 18px;&quot;&gt;HỆ THỐNG&lt;/font&gt;" style="text;align=center;fontStyle=1;verticalAlign=middle;spacingLeft=3;spacingRight=3;strokeColor=#0F8B8D;rotatable=0;points=[[0,0.5],[1,0.5]];portConstraint=eastwest;html=1;fillColor=#FAE5C7;labelBackgroundColor=none;fontColor=#143642;" vertex="1" parent="1">
          <mxGeometry x="167" y="3875" width="259.5" height="26" as="geometry" />
        </mxCell>
        <mxCell id="W3CPAuRqWTJg_mLWyuju-359" value="" style="whiteSpace=wrap;strokeWidth=2;labelBackgroundColor=none;fillColor=#FAE5C7;strokeColor=#0F8B8D;fontColor=#143642;" vertex="1" parent="1">
          <mxGeometry x="704.5" y="4130" width="625" height="1011" as="geometry" />
        </mxCell>
        <mxCell id="W3CPAuRqWTJg_mLWyuju-360" value="" style="whiteSpace=wrap;strokeWidth=2;labelBackgroundColor=none;fillColor=#FAE5C7;strokeColor=#0F8B8D;fontColor=#143642;" vertex="1" parent="1">
          <mxGeometry x="770.5" y="3718" width="572" height="360" as="geometry" />
        </mxCell>
        <mxCell id="W3CPAuRqWTJg_mLWyuju-361" value="Thêm sản phẩm vào giỏ hàng" style="fillColor=none;strokeColor=none;labelBackgroundColor=none;fontColor=#143642;" vertex="1" parent="1">
          <mxGeometry x="979.5" y="3743" width="260" height="78" as="geometry" />
        </mxCell>
        <mxCell id="W3CPAuRqWTJg_mLWyuju-362" value="Xác nhận giỏ hàng" style="fillColor=none;strokeColor=none;labelBackgroundColor=none;fontColor=#143642;" vertex="1" parent="1">
          <mxGeometry x="839.5" y="3871" width="192" height="54" as="geometry" />
        </mxCell>
        <mxCell id="W3CPAuRqWTJg_mLWyuju-363" value="Nhập thông tin giao hàng và thanh toán" style="fillColor=none;strokeColor=none;labelBackgroundColor=none;fontColor=#143642;" vertex="1" parent="1">
          <mxGeometry x="798.5" y="3977" width="260" height="78" as="geometry" />
        </mxCell>
        <mxCell id="W3CPAuRqWTJg_mLWyuju-364" value="Kiểm tra thông tin giao hàng" style="fillColor=none;strokeColor=none;labelBackgroundColor=none;fontColor=#143642;" vertex="1" parent="1">
          <mxGeometry x="798.5" y="4155" width="260" height="78" as="geometry" />
        </mxCell>
        <mxCell id="W3CPAuRqWTJg_mLWyuju-365" value="Thông tin hợp lệ?" style="rhombus;strokeWidth=2;whiteSpace=wrap;labelBackgroundColor=none;fillColor=#FAE5C7;strokeColor=#0F8B8D;fontColor=#143642;" vertex="1" parent="1">
          <mxGeometry x="838.5" y="4283" width="179" height="179" as="geometry" />
        </mxCell>
        <mxCell id="W3CPAuRqWTJg_mLWyuju-366" value="Xử lý thanh toán" style="fillColor=none;strokeColor=none;labelBackgroundColor=none;fontColor=#143642;" vertex="1" parent="1">
          <mxGeometry x="770.5" y="4534" width="180" height="54" as="geometry" />
        </mxCell>
        <mxCell id="W3CPAuRqWTJg_mLWyuju-367" value="Thanh toán thành công?" style="rhombus;strokeWidth=2;whiteSpace=wrap;labelBackgroundColor=none;fillColor=#FAE5C7;strokeColor=#0F8B8D;fontColor=#143642;" vertex="1" parent="1">
          <mxGeometry x="748.5" y="4661" width="225" height="225" as="geometry" />
        </mxCell>
        <mxCell id="W3CPAuRqWTJg_mLWyuju-368" value="Lưu đơn hàng" style="fillColor=none;strokeColor=none;labelBackgroundColor=none;fontColor=#143642;" vertex="1" parent="1">
          <mxGeometry x="781.5" y="4958" width="158" height="54" as="geometry" />
        </mxCell>
        <mxCell id="W3CPAuRqWTJg_mLWyuju-369" value="Gửi xác nhận thành công" style="fillColor=none;strokeColor=none;labelBackgroundColor=none;fontColor=#143642;" vertex="1" parent="1">
          <mxGeometry x="1075.5" y="5042" width="240" height="54" as="geometry" />
        </mxCell>
        <mxCell id="W3CPAuRqWTJg_mLWyuju-370" value="Hiển thị thông báo lỗi" style="fillColor=none;strokeColor=none;labelBackgroundColor=none;fontColor=#143642;" vertex="1" parent="1">
          <mxGeometry x="989.5" y="4958" width="217" height="54" as="geometry" />
        </mxCell>
        <mxCell id="W3CPAuRqWTJg_mLWyuju-371" value="" style="curved=1;startArrow=circle;startFill=0;endArrow=circle;endFill=0;exitX=0.09;exitY=1;entryX=0.5;entryY=0;rounded=0;labelBackgroundColor=none;strokeColor=#A8201A;fontColor=default;" edge="1" parent="1" source="W3CPAuRqWTJg_mLWyuju-361" target="W3CPAuRqWTJg_mLWyuju-362">
          <mxGeometry relative="1" as="geometry">
            <Array as="points">
              <mxPoint x="935.5" y="3846" />
            </Array>
          </mxGeometry>
        </mxCell>
        <mxCell id="W3CPAuRqWTJg_mLWyuju-372" value="" style="curved=1;startArrow=none;endArrow=circle;endFill=0;exitX=0.5;exitY=1;entryX=0.5;entryY=0;rounded=0;labelBackgroundColor=none;strokeColor=#A8201A;fontColor=default;" edge="1" parent="1" source="W3CPAuRqWTJg_mLWyuju-362" target="W3CPAuRqWTJg_mLWyuju-363">
          <mxGeometry relative="1" as="geometry">
            <Array as="points" />
          </mxGeometry>
        </mxCell>
        <mxCell id="W3CPAuRqWTJg_mLWyuju-373" value="" style="curved=1;startArrow=none;endArrow=circle;endFill=0;exitX=0.5;exitY=1;entryX=0.5;entryY=0;rounded=0;labelBackgroundColor=none;strokeColor=#A8201A;fontColor=default;" edge="1" parent="1" source="W3CPAuRqWTJg_mLWyuju-363" target="W3CPAuRqWTJg_mLWyuju-364">
          <mxGeometry relative="1" as="geometry">
            <Array as="points" />
          </mxGeometry>
        </mxCell>
        <mxCell id="W3CPAuRqWTJg_mLWyuju-374" value="" style="curved=1;startArrow=none;endArrow=block;exitX=0.5;exitY=1;entryX=0.5;entryY=0;rounded=0;labelBackgroundColor=none;strokeColor=#A8201A;fontColor=default;" edge="1" parent="1" source="W3CPAuRqWTJg_mLWyuju-364" target="W3CPAuRqWTJg_mLWyuju-365">
          <mxGeometry relative="1" as="geometry">
            <Array as="points" />
          </mxGeometry>
        </mxCell>
        <mxCell id="W3CPAuRqWTJg_mLWyuju-375" value="Có" style="startArrow=none;endArrow=circle;endFill=0;exitX=0.23;exitY=1;entryX=0.5;entryY=0.01;rounded=0;labelBackgroundColor=none;strokeColor=#A8201A;fontColor=default;" edge="1" parent="1" source="W3CPAuRqWTJg_mLWyuju-365" target="W3CPAuRqWTJg_mLWyuju-366">
          <mxGeometry relative="1" as="geometry" />
        </mxCell>
        <mxCell id="W3CPAuRqWTJg_mLWyuju-376" value="" style="curved=1;startArrow=none;endArrow=block;exitX=0.5;exitY=1.01;entryX=0.5;entryY=0;rounded=0;labelBackgroundColor=none;strokeColor=#A8201A;fontColor=default;" edge="1" parent="1" source="W3CPAuRqWTJg_mLWyuju-366" target="W3CPAuRqWTJg_mLWyuju-367">
          <mxGeometry relative="1" as="geometry">
            <Array as="points" />
          </mxGeometry>
        </mxCell>
        <mxCell id="W3CPAuRqWTJg_mLWyuju-377" value="Không" style="startArrow=none;endArrow=circle;endFill=0;exitX=1;exitY=1;entryX=0.42;entryY=0;rounded=0;labelBackgroundColor=none;strokeColor=#A8201A;fontColor=default;" edge="1" parent="1" source="W3CPAuRqWTJg_mLWyuju-365" target="W3CPAuRqWTJg_mLWyuju-370">
          <mxGeometry relative="1" as="geometry" />
        </mxCell>
        <mxCell id="W3CPAuRqWTJg_mLWyuju-378" value="Có" style="curved=1;startArrow=none;endArrow=circle;endFill=0;exitX=0.5;exitY=1;entryX=0.5;entryY=0;rounded=0;labelBackgroundColor=none;strokeColor=#A8201A;fontColor=default;" edge="1" parent="1" source="W3CPAuRqWTJg_mLWyuju-367" target="W3CPAuRqWTJg_mLWyuju-368">
          <mxGeometry relative="1" as="geometry">
            <Array as="points" />
          </mxGeometry>
        </mxCell>
        <mxCell id="W3CPAuRqWTJg_mLWyuju-379" value="" style="startArrow=none;endArrow=circle;endFill=0;exitX=0.5;exitY=1;entryX=0.09;entryY=0;rounded=0;labelBackgroundColor=none;strokeColor=#A8201A;fontColor=default;" edge="1" parent="1" source="W3CPAuRqWTJg_mLWyuju-368" target="W3CPAuRqWTJg_mLWyuju-369">
          <mxGeometry relative="1" as="geometry" />
        </mxCell>
        <mxCell id="W3CPAuRqWTJg_mLWyuju-380" value="Không" style="startArrow=none;endArrow=block;exitX=1;exitY=0.81;entryX=0.5;entryY=0;rounded=0;labelBackgroundColor=none;strokeColor=#A8201A;fontColor=default;" edge="1" parent="1" source="W3CPAuRqWTJg_mLWyuju-367" target="W3CPAuRqWTJg_mLWyuju-370">
          <mxGeometry relative="1" as="geometry" />
        </mxCell>
        <mxCell id="W3CPAuRqWTJg_mLWyuju-381" value="" style="curved=1;startArrow=none;endArrow=block;rounded=0;entryX=0.854;entryY=0.991;entryDx=0;entryDy=0;entryPerimeter=0;labelBackgroundColor=none;strokeColor=#A8201A;fontColor=default;" edge="1" parent="1">
          <mxGeometry relative="1" as="geometry">
            <Array as="points" />
            <mxPoint x="1246.1545836837684" y="5021" as="sourcePoint" />
            <mxPoint x="1251.9880000000003" y="4076.76" as="targetPoint" />
          </mxGeometry>
        </mxCell>
        <mxCell id="W3CPAuRqWTJg_mLWyuju-382" value="" style="curved=1;startArrow=none;endArrow=block;rounded=0;entryX=0.586;entryY=0.998;entryDx=0;entryDy=0;entryPerimeter=0;labelBackgroundColor=none;strokeColor=#A8201A;fontColor=default;" edge="1" parent="1" source="W3CPAuRqWTJg_mLWyuju-370">
          <mxGeometry relative="1" as="geometry">
            <Array as="points" />
            <mxPoint x="1098.692" y="4079.2799999999997" as="targetPoint" />
          </mxGeometry>
        </mxCell>
        <mxCell id="W3CPAuRqWTJg_mLWyuju-383" value="NGƯỜI DÙNG" style="text;align=center;fontStyle=1;verticalAlign=middle;spacingLeft=3;spacingRight=3;strokeColor=#0F8B8D;rotatable=0;points=[[0,0.5],[1,0.5]];portConstraint=eastwest;html=1;fontSize=17;fillColor=#FAE5C7;labelBackgroundColor=none;fontColor=#143642;" vertex="1" parent="1">
          <mxGeometry x="939.5" y="3692" width="209" height="26" as="geometry" />
        </mxCell>
        <mxCell id="W3CPAuRqWTJg_mLWyuju-384" value="&lt;font style=&quot;font-size: 18px;&quot;&gt;HỆ THỐNG&lt;/font&gt;" style="text;align=center;fontStyle=1;verticalAlign=middle;spacingLeft=3;spacingRight=3;strokeColor=#0F8B8D;rotatable=0;points=[[0,0.5],[1,0.5]];portConstraint=eastwest;html=1;fillColor=#FAE5C7;labelBackgroundColor=none;fontColor=#143642;" vertex="1" parent="1">
          <mxGeometry x="887.25" y="5143" width="259.5" height="26" as="geometry" />
        </mxCell>
        <mxCell id="W3CPAuRqWTJg_mLWyuju-434" value="" style="whiteSpace=wrap;strokeWidth=2;labelBackgroundColor=none;fillColor=#FAE5C7;strokeColor=#0F8B8D;fontColor=#143642;" vertex="1" parent="1">
          <mxGeometry x="26.5" y="5833" width="552" height="1011" as="geometry" />
        </mxCell>
        <mxCell id="W3CPAuRqWTJg_mLWyuju-435" value="" style="whiteSpace=wrap;strokeWidth=2;labelBackgroundColor=none;fillColor=#FAE5C7;strokeColor=#0F8B8D;fontColor=#143642;" vertex="1" parent="1">
          <mxGeometry x="134" y="5443" width="330" height="360" as="geometry" />
        </mxCell>
        <mxCell id="W3CPAuRqWTJg_mLWyuju-436" value="Thêm sản phẩm vào giỏ hàng" style="fillColor=none;strokeColor=none;labelBackgroundColor=none;fontColor=#143642;fontSize=19;" vertex="1" parent="1">
          <mxGeometry x="169" y="5468" width="260" height="78" as="geometry" />
        </mxCell>
        <mxCell id="W3CPAuRqWTJg_mLWyuju-437" value="Xác nhận giỏ hàng" style="fillColor=none;strokeColor=none;labelBackgroundColor=none;fontColor=#143642;fontSize=17;" vertex="1" parent="1">
          <mxGeometry x="203" y="5596" width="192" height="54" as="geometry" />
        </mxCell>
        <mxCell id="W3CPAuRqWTJg_mLWyuju-438" value="Nhập thông tin giao hàng và thanh toán" style="fillColor=none;strokeColor=none;labelBackgroundColor=none;fontColor=#143642;fontSize=17;" vertex="1" parent="1">
          <mxGeometry x="169" y="5700" width="260" height="78" as="geometry" />
        </mxCell>
        <mxCell id="W3CPAuRqWTJg_mLWyuju-439" value="Kiểm tra thông tin giao hàng" style="fillColor=none;strokeColor=none;labelBackgroundColor=none;fontColor=#143642;fontSize=17;" vertex="1" parent="1">
          <mxGeometry x="169" y="5878" width="260" height="78" as="geometry" />
        </mxCell>
        <mxCell id="W3CPAuRqWTJg_mLWyuju-440" value="Thông tin hợp lệ?" style="rhombus;strokeWidth=2;whiteSpace=wrap;labelBackgroundColor=none;fillColor=#FAE5C7;strokeColor=#0F8B8D;fontColor=#143642;fontSize=18;" vertex="1" parent="1">
          <mxGeometry x="209" y="6006" width="179" height="179" as="geometry" />
        </mxCell>
        <mxCell id="W3CPAuRqWTJg_mLWyuju-441" value="Xử lý thanh toán" style="fillColor=none;strokeColor=none;labelBackgroundColor=none;fontColor=#143642;fontSize=17;" vertex="1" parent="1">
          <mxGeometry x="118" y="6257" width="180" height="54" as="geometry" />
        </mxCell>
        <mxCell id="W3CPAuRqWTJg_mLWyuju-442" value="Thanh toán thành công?" style="rhombus;strokeWidth=2;whiteSpace=wrap;labelBackgroundColor=none;fillColor=#FAE5C7;strokeColor=#0F8B8D;fontColor=#143642;fontSize=18;" vertex="1" parent="1">
          <mxGeometry x="95" y="6384" width="225" height="225" as="geometry" />
        </mxCell>
        <mxCell id="W3CPAuRqWTJg_mLWyuju-443" value="Lưu đơn hàng" style="fillColor=none;strokeColor=none;labelBackgroundColor=none;fontColor=#143642;fontSize=17;" vertex="1" parent="1">
          <mxGeometry x="101" y="6681" width="158" height="54" as="geometry" />
        </mxCell>
        <mxCell id="W3CPAuRqWTJg_mLWyuju-444" value="Gửi xác nhận thành công" style="fillColor=none;strokeColor=none;labelBackgroundColor=none;fontColor=#143642;fontSize=17;" vertex="1" parent="1">
          <mxGeometry x="60" y="6785" width="240" height="54" as="geometry" />
        </mxCell>
        <mxCell id="W3CPAuRqWTJg_mLWyuju-445" value="Hiển thị thông báo lỗi" style="fillColor=none;strokeColor=none;labelBackgroundColor=none;fontColor=#143642;fontSize=17;" vertex="1" parent="1">
          <mxGeometry x="309" y="6681" width="217" height="54" as="geometry" />
        </mxCell>
        <mxCell id="W3CPAuRqWTJg_mLWyuju-446" value="" style="curved=1;startArrow=circle;startFill=0;endArrow=circle;endFill=0;exitX=0.5;exitY=1;entryX=0.5;entryY=0;rounded=0;labelBackgroundColor=none;strokeColor=#A8201A;fontColor=default;" edge="1" parent="1" source="W3CPAuRqWTJg_mLWyuju-436" target="W3CPAuRqWTJg_mLWyuju-437">
          <mxGeometry relative="1" as="geometry">
            <Array as="points" />
          </mxGeometry>
        </mxCell>
        <mxCell id="W3CPAuRqWTJg_mLWyuju-447" value="" style="curved=1;startArrow=none;endArrow=circle;endFill=0;exitX=0.5;exitY=1;entryX=0.5;entryY=0;rounded=0;labelBackgroundColor=none;strokeColor=#A8201A;fontColor=default;" edge="1" parent="1" source="W3CPAuRqWTJg_mLWyuju-437" target="W3CPAuRqWTJg_mLWyuju-438">
          <mxGeometry relative="1" as="geometry">
            <Array as="points" />
          </mxGeometry>
        </mxCell>
        <mxCell id="W3CPAuRqWTJg_mLWyuju-448" value="" style="curved=1;startArrow=none;endArrow=circle;endFill=0;exitX=0.5;exitY=1;entryX=0.5;entryY=0;rounded=0;labelBackgroundColor=none;strokeColor=#A8201A;fontColor=default;" edge="1" parent="1" source="W3CPAuRqWTJg_mLWyuju-438" target="W3CPAuRqWTJg_mLWyuju-439">
          <mxGeometry relative="1" as="geometry">
            <Array as="points" />
          </mxGeometry>
        </mxCell>
        <mxCell id="W3CPAuRqWTJg_mLWyuju-449" value="" style="curved=1;startArrow=none;endArrow=block;exitX=0.5;exitY=1;entryX=0.5;entryY=0;rounded=0;labelBackgroundColor=none;strokeColor=#A8201A;fontColor=default;" edge="1" parent="1" source="W3CPAuRqWTJg_mLWyuju-439" target="W3CPAuRqWTJg_mLWyuju-440">
          <mxGeometry relative="1" as="geometry">
            <Array as="points" />
          </mxGeometry>
        </mxCell>
        <mxCell id="W3CPAuRqWTJg_mLWyuju-450" value="Có" style="startArrow=none;endArrow=circle;endFill=0;exitX=0.14;exitY=1;entryX=0.5;entryY=0.01;rounded=0;labelBackgroundColor=none;strokeColor=#A8201A;fontColor=default;fontSize=16;" edge="1" parent="1" source="W3CPAuRqWTJg_mLWyuju-440" target="W3CPAuRqWTJg_mLWyuju-441">
          <mxGeometry relative="1" as="geometry" />
        </mxCell>
        <mxCell id="W3CPAuRqWTJg_mLWyuju-451" value="" style="curved=1;startArrow=none;endArrow=block;exitX=0.5;exitY=1.01;entryX=0.5;entryY=0;rounded=0;labelBackgroundColor=none;strokeColor=#A8201A;fontColor=default;" edge="1" parent="1" source="W3CPAuRqWTJg_mLWyuju-441" target="W3CPAuRqWTJg_mLWyuju-442">
          <mxGeometry relative="1" as="geometry">
            <Array as="points" />
          </mxGeometry>
        </mxCell>
        <mxCell id="W3CPAuRqWTJg_mLWyuju-452" value="Có" style="startArrow=none;endArrow=circle;endFill=0;exitX=0.41;exitY=1;entryX=0.5;entryY=0;rounded=0;labelBackgroundColor=none;strokeColor=#A8201A;fontColor=default;fontSize=15;" edge="1" parent="1" source="W3CPAuRqWTJg_mLWyuju-442" target="W3CPAuRqWTJg_mLWyuju-443">
          <mxGeometry relative="1" as="geometry" />
        </mxCell>
        <mxCell id="W3CPAuRqWTJg_mLWyuju-453" value="" style="startArrow=none;endArrow=circle;endFill=0;exitX=0.5;exitY=1;entryX=0.5;entryY=0;rounded=0;labelBackgroundColor=none;strokeColor=#A8201A;fontColor=default;" edge="1" parent="1" source="W3CPAuRqWTJg_mLWyuju-443" target="W3CPAuRqWTJg_mLWyuju-444">
          <mxGeometry relative="1" as="geometry" />
        </mxCell>
        <mxCell id="W3CPAuRqWTJg_mLWyuju-454" value="Không" style="startArrow=none;endArrow=circle;endFill=0;exitX=0.9;exitY=1;entryX=0.32;entryY=0;rounded=0;labelBackgroundColor=none;strokeColor=#A8201A;fontColor=default;fontSize=16;" edge="1" parent="1" source="W3CPAuRqWTJg_mLWyuju-442" target="W3CPAuRqWTJg_mLWyuju-445">
          <mxGeometry relative="1" as="geometry" />
        </mxCell>
        <mxCell id="W3CPAuRqWTJg_mLWyuju-455" value="Không" style="startArrow=none;endArrow=block;exitX=1;exitY=0.87;entryX=0.6;entryY=0;rounded=0;labelBackgroundColor=none;strokeColor=#A8201A;fontColor=default;fontSize=16;" edge="1" parent="1" source="W3CPAuRqWTJg_mLWyuju-440" target="W3CPAuRqWTJg_mLWyuju-445">
          <mxGeometry x="-0.0024" relative="1" as="geometry">
            <mxPoint as="offset" />
          </mxGeometry>
        </mxCell>
        <mxCell id="W3CPAuRqWTJg_mLWyuju-456" value="&lt;font style=&quot;font-size: 18px;&quot;&gt;HỆ THỐNG&lt;/font&gt;" style="text;align=center;fontStyle=1;verticalAlign=middle;spacingLeft=3;spacingRight=3;strokeColor=#0F8B8D;rotatable=0;points=[[0,0.5],[1,0.5]];portConstraint=eastwest;html=1;fillColor=#FAE5C7;labelBackgroundColor=none;fontColor=#143642;" vertex="1" parent="1">
          <mxGeometry x="177.75" y="6844" width="259.5" height="26" as="geometry" />
        </mxCell>
        <mxCell id="W3CPAuRqWTJg_mLWyuju-457" value="NGƯỜI DÙNG" style="text;align=center;fontStyle=1;verticalAlign=middle;spacingLeft=3;spacingRight=3;strokeColor=#0F8B8D;rotatable=0;points=[[0,0.5],[1,0.5]];portConstraint=eastwest;html=1;fontSize=17;fillColor=#FAE5C7;labelBackgroundColor=none;fontColor=#143642;" vertex="1" parent="1">
          <mxGeometry x="198" y="5417" width="209" height="26" as="geometry" />
        </mxCell>
        <mxCell id="W3CPAuRqWTJg_mLWyuju-458" value="Hệ thống" style="whiteSpace=wrap;strokeWidth=2;labelBackgroundColor=none;fillColor=#FAE5C7;strokeColor=#0F8B8D;fontColor=#143642;fontSize=18;" vertex="1" parent="1">
          <mxGeometry x="-1202" y="6754" width="640" height="690" as="geometry" />
        </mxCell>
        <mxCell id="W3CPAuRqWTJg_mLWyuju-459" value="" style="whiteSpace=wrap;strokeWidth=2;labelBackgroundColor=none;fillColor=#FAE5C7;strokeColor=#0F8B8D;fontColor=#143642;" vertex="1" parent="1">
          <mxGeometry x="-542" y="6601" width="330" height="996" as="geometry" />
        </mxCell>
        <mxCell id="W3CPAuRqWTJg_mLWyuju-460" value="Nhập câu hỏi hoặc vấn đề cần tư vấn" style="fillColor=none;strokeColor=none;labelBackgroundColor=none;fontColor=#143642;fontSize=18;" vertex="1" parent="1">
          <mxGeometry x="-507" y="6626" width="260" height="78" as="geometry" />
        </mxCell>
        <mxCell id="W3CPAuRqWTJg_mLWyuju-461" value="Chờ phản hồi từ hệ thống" style="fillColor=none;strokeColor=none;labelBackgroundColor=none;fontColor=#143642;fontSize=18;" vertex="1" parent="1">
          <mxGeometry x="-501" y="7353" width="248" height="54" as="geometry" />
        </mxCell>
        <mxCell id="W3CPAuRqWTJg_mLWyuju-462" value="Xem câu trả lời hoặc hướng dẫn" style="fillColor=none;strokeColor=none;labelBackgroundColor=none;fontColor=#143642;fontSize=18;" vertex="1" parent="1">
          <mxGeometry x="-507" y="7494" width="260" height="78" as="geometry" />
        </mxCell>
        <mxCell id="W3CPAuRqWTJg_mLWyuju-463" value="Phân tích câu hỏi từ người dùng" style="fillColor=none;strokeColor=none;labelBackgroundColor=none;fontColor=#143642;fontSize=18;" vertex="1" parent="1">
          <mxGeometry x="-1012" y="6779" width="260" height="78" as="geometry" />
        </mxCell>
        <mxCell id="W3CPAuRqWTJg_mLWyuju-464" value="Câu hỏi có hợp lệ không?" style="rhombus;strokeWidth=2;whiteSpace=wrap;labelBackgroundColor=none;fillColor=#FAE5C7;strokeColor=#0F8B8D;fontColor=#143642;fontSize=17;" vertex="1" parent="1">
          <mxGeometry x="-999" y="6907" width="234" height="233" as="geometry" />
        </mxCell>
        <mxCell id="W3CPAuRqWTJg_mLWyuju-465" value="Tìm kiếm thông tin phù hợp" style="fillColor=none;strokeColor=none;labelBackgroundColor=none;fontColor=#143642;fontSize=18;" vertex="1" parent="1">
          <mxGeometry x="-1167" y="7213" width="260" height="78" as="geometry" />
        </mxCell>
        <mxCell id="W3CPAuRqWTJg_mLWyuju-466" value="Trả lời câu hỏi hoặc cung cấp hướng dẫn" style="fillColor=none;strokeColor=none;labelBackgroundColor=none;fontColor=#143642;fontSize=18;" vertex="1" parent="1">
          <mxGeometry x="-1167" y="7341" width="260" height="78" as="geometry" />
        </mxCell>
        <mxCell id="W3CPAuRqWTJg_mLWyuju-467" value="Hiển thị thông báo lỗi hoặc yêu cầu nhập lại" style="fillColor=none;strokeColor=none;labelBackgroundColor=none;fontColor=#143642;fontSize=18;" vertex="1" parent="1">
          <mxGeometry x="-857" y="7213" width="260" height="78" as="geometry" />
        </mxCell>
        <mxCell id="W3CPAuRqWTJg_mLWyuju-468" value="" style="startArrow=circle;startFill=0;endArrow=circle;endFill=0;exitX=0.5;exitY=1;entryX=1;entryY=0.29;rounded=0;labelBackgroundColor=none;strokeColor=#A8201A;fontColor=default;" edge="1" parent="1" source="W3CPAuRqWTJg_mLWyuju-460" target="W3CPAuRqWTJg_mLWyuju-463">
          <mxGeometry relative="1" as="geometry" />
        </mxCell>
        <mxCell id="W3CPAuRqWTJg_mLWyuju-469" value="" style="curved=1;startArrow=none;endArrow=block;exitX=0.5;exitY=1;entryX=0.5;entryY=0;rounded=0;labelBackgroundColor=none;strokeColor=#A8201A;fontColor=default;" edge="1" parent="1" source="W3CPAuRqWTJg_mLWyuju-463" target="W3CPAuRqWTJg_mLWyuju-464">
          <mxGeometry relative="1" as="geometry">
            <Array as="points" />
          </mxGeometry>
        </mxCell>
        <mxCell id="W3CPAuRqWTJg_mLWyuju-470" value="Có" style="startArrow=none;endArrow=circle;endFill=0;exitX=0;exitY=0.99;entryX=0.5;entryY=0.01;rounded=0;labelBackgroundColor=none;strokeColor=#A8201A;fontColor=default;fontSize=18;" edge="1" parent="1" source="W3CPAuRqWTJg_mLWyuju-464" target="W3CPAuRqWTJg_mLWyuju-465">
          <mxGeometry relative="1" as="geometry" />
        </mxCell>
        <mxCell id="W3CPAuRqWTJg_mLWyuju-471" value="" style="curved=1;startArrow=none;endArrow=circle;endFill=0;exitX=0.5;exitY=1.01;entryX=0.5;entryY=0.01;rounded=0;labelBackgroundColor=none;strokeColor=#A8201A;fontColor=default;" edge="1" parent="1" source="W3CPAuRqWTJg_mLWyuju-465" target="W3CPAuRqWTJg_mLWyuju-466">
          <mxGeometry relative="1" as="geometry">
            <Array as="points" />
          </mxGeometry>
        </mxCell>
        <mxCell id="W3CPAuRqWTJg_mLWyuju-472" value="" style="startArrow=none;endArrow=circle;endFill=0;exitX=0.5;exitY=1.01;entryX=0.5;entryY=0.01;rounded=0;labelBackgroundColor=none;strokeColor=#A8201A;fontColor=default;" edge="1" parent="1" source="W3CPAuRqWTJg_mLWyuju-466" target="W3CPAuRqWTJg_mLWyuju-462">
          <mxGeometry relative="1" as="geometry" />
        </mxCell>
        <mxCell id="W3CPAuRqWTJg_mLWyuju-473" value="Không" style="startArrow=none;endArrow=circle;endFill=0;exitX=1;exitY=0.99;entryX=0.5;entryY=0.01;rounded=0;labelBackgroundColor=none;strokeColor=#A8201A;fontColor=default;fontSize=15;" edge="1" parent="1" source="W3CPAuRqWTJg_mLWyuju-464" target="W3CPAuRqWTJg_mLWyuju-467">
          <mxGeometry relative="1" as="geometry" />
        </mxCell>
        <mxCell id="W3CPAuRqWTJg_mLWyuju-474" value="" style="startArrow=none;endArrow=circle;endFill=0;exitX=0.5;exitY=1.01;entryX=0;entryY=0.09;rounded=0;labelBackgroundColor=none;strokeColor=#A8201A;fontColor=default;" edge="1" parent="1" source="W3CPAuRqWTJg_mLWyuju-467" target="W3CPAuRqWTJg_mLWyuju-461">
          <mxGeometry relative="1" as="geometry" />
        </mxCell>
        <mxCell id="W3CPAuRqWTJg_mLWyuju-475" value="&lt;font style=&quot;font-size: 18px;&quot;&gt;HỆ THỐNG&lt;/font&gt;" style="text;align=center;fontStyle=1;verticalAlign=middle;spacingLeft=3;spacingRight=3;strokeColor=#0F8B8D;rotatable=0;points=[[0,0.5],[1,0.5]];portConstraint=eastwest;html=1;fillColor=#FAE5C7;labelBackgroundColor=none;fontColor=#143642;" vertex="1" parent="1">
          <mxGeometry x="-1017.5" y="6728" width="259.5" height="26" as="geometry" />
        </mxCell>
        <mxCell id="W3CPAuRqWTJg_mLWyuju-476" value="NGƯỜI DÙNG" style="text;align=center;fontStyle=1;verticalAlign=middle;spacingLeft=3;spacingRight=3;strokeColor=#0F8B8D;rotatable=0;points=[[0,0.5],[1,0.5]];portConstraint=eastwest;html=1;fontSize=17;fillColor=#FAE5C7;labelBackgroundColor=none;fontColor=#143642;" vertex="1" parent="1">
          <mxGeometry x="-487.5" y="6575" width="209" height="26" as="geometry" />
        </mxCell>
        <mxCell id="W3CPAuRqWTJg_mLWyuju-478" value="" style="whiteSpace=wrap;strokeWidth=2;fontSize=20;labelBackgroundColor=none;fillColor=#FAE5C7;strokeColor=#0F8B8D;fontColor=#143642;" vertex="1" parent="1">
          <mxGeometry x="10" y="8299" width="357" height="1072" as="geometry" />
        </mxCell>
        <mxCell id="W3CPAuRqWTJg_mLWyuju-479" value="" style="whiteSpace=wrap;strokeWidth=2;fontSize=20;labelBackgroundColor=none;fillColor=#FAE5C7;strokeColor=#0F8B8D;fontColor=#143642;" vertex="1" parent="1">
          <mxGeometry x="387" y="8170" width="330" height="1342" as="geometry" />
        </mxCell>
        <mxCell id="W3CPAuRqWTJg_mLWyuju-480" value="Đăng nhập tài khoản" style="fillColor=none;strokeColor=none;fontSize=20;labelBackgroundColor=none;fontColor=#143642;" vertex="1" parent="1">
          <mxGeometry x="448" y="8195" width="209" height="54" as="geometry" />
        </mxCell>
        <mxCell id="W3CPAuRqWTJg_mLWyuju-481" value="Truy cập mục Đơn hàng của tôi" style="fillColor=none;strokeColor=none;fontSize=20;labelBackgroundColor=none;fontColor=#143642;" vertex="1" parent="1">
          <mxGeometry x="422" y="8744" width="260" height="78" as="geometry" />
        </mxCell>
        <mxCell id="W3CPAuRqWTJg_mLWyuju-482" value="Chọn đơn hàng cần kiểm tra" style="fillColor=none;strokeColor=none;fontSize=20;labelBackgroundColor=none;fontColor=#143642;" vertex="1" parent="1">
          <mxGeometry x="422" y="8872" width="260" height="78" as="geometry" />
        </mxCell>
        <mxCell id="W3CPAuRqWTJg_mLWyuju-483" value="Xem thông tin trạng thái đơn hàng" style="fillColor=none;strokeColor=none;fontSize=20;labelBackgroundColor=none;fontColor=#143642;" vertex="1" parent="1">
          <mxGeometry x="422" y="9409" width="260" height="78" as="geometry" />
        </mxCell>
        <mxCell id="W3CPAuRqWTJg_mLWyuju-484" value="Xác thực thông tin đăng nhập" style="fillColor=none;strokeColor=none;fontSize=20;labelBackgroundColor=none;fontColor=#143642;" vertex="1" parent="1">
          <mxGeometry x="72" y="8324" width="260" height="78" as="geometry" />
        </mxCell>
        <mxCell id="W3CPAuRqWTJg_mLWyuju-485" value="Đăng nhập thành công?" style="rhombus;strokeWidth=2;whiteSpace=wrap;fontSize=20;labelBackgroundColor=none;fillColor=#FAE5C7;strokeColor=#0F8B8D;fontColor=#143642;" vertex="1" parent="1">
          <mxGeometry x="92" y="8452" width="220" height="220" as="geometry" />
        </mxCell>
        <mxCell id="W3CPAuRqWTJg_mLWyuju-486" value="Truy xuất danh sách đơn hàng" style="fillColor=none;strokeColor=none;fontSize=20;labelBackgroundColor=none;fontColor=#143642;" vertex="1" parent="1">
          <mxGeometry x="55" y="9000" width="260" height="78" as="geometry" />
        </mxCell>
        <mxCell id="W3CPAuRqWTJg_mLWyuju-487" value="Lấy thông tin trạng thái của đơn hàng" style="fillColor=none;strokeColor=none;fontSize=20;labelBackgroundColor=none;fontColor=#143642;" vertex="1" parent="1">
          <mxGeometry x="55" y="9128" width="260" height="78" as="geometry" />
        </mxCell>
        <mxCell id="W3CPAuRqWTJg_mLWyuju-488" value="Hiển thị trạng thái đơn hàng" style="fillColor=none;strokeColor=none;fontSize=20;labelBackgroundColor=none;fontColor=#143642;" vertex="1" parent="1">
          <mxGeometry x="55" y="9256" width="260" height="78" as="geometry" />
        </mxCell>
        <mxCell id="W3CPAuRqWTJg_mLWyuju-489" value="Hiển thị thông báo lỗi" style="fillColor=none;strokeColor=none;fontSize=20;labelBackgroundColor=none;fontColor=#143642;" vertex="1" parent="1">
          <mxGeometry x="66" y="8756" width="217" height="54" as="geometry" />
        </mxCell>
        <mxCell id="W3CPAuRqWTJg_mLWyuju-490" value="" style="startArrow=circle;startFill=0;endArrow=circle;endFill=0;exitX=0.5;exitY=1;entryX=1;entryY=0.2;rounded=0;fontSize=20;labelBackgroundColor=none;strokeColor=#A8201A;fontColor=default;" edge="1" parent="1" source="W3CPAuRqWTJg_mLWyuju-480" target="W3CPAuRqWTJg_mLWyuju-484">
          <mxGeometry relative="1" as="geometry" />
        </mxCell>
        <mxCell id="W3CPAuRqWTJg_mLWyuju-491" value="" style="curved=1;startArrow=none;endArrow=block;exitX=0.5;exitY=1;entryX=0.5;entryY=0;rounded=0;fontSize=20;labelBackgroundColor=none;strokeColor=#A8201A;fontColor=default;" edge="1" parent="1" source="W3CPAuRqWTJg_mLWyuju-484" target="W3CPAuRqWTJg_mLWyuju-485">
          <mxGeometry relative="1" as="geometry">
            <Array as="points" />
          </mxGeometry>
        </mxCell>
        <mxCell id="W3CPAuRqWTJg_mLWyuju-492" value="Có" style="startArrow=none;endArrow=circle;endFill=0;exitX=0.73;exitY=1;entryX=0;entryY=0.06;rounded=0;fontSize=20;labelBackgroundColor=none;strokeColor=#A8201A;fontColor=default;" edge="1" parent="1" source="W3CPAuRqWTJg_mLWyuju-485" target="W3CPAuRqWTJg_mLWyuju-481">
          <mxGeometry relative="1" as="geometry" />
        </mxCell>
        <mxCell id="W3CPAuRqWTJg_mLWyuju-493" value="Không" style="startArrow=none;endArrow=circle;endFill=0;exitX=0.41;exitY=1;entryX=0.5;entryY=0;rounded=0;fontSize=20;labelBackgroundColor=none;strokeColor=#A8201A;fontColor=default;" edge="1" parent="1" source="W3CPAuRqWTJg_mLWyuju-485" target="W3CPAuRqWTJg_mLWyuju-489">
          <mxGeometry relative="1" as="geometry" />
        </mxCell>
        <mxCell id="W3CPAuRqWTJg_mLWyuju-494" value="" style="curved=1;startArrow=none;endArrow=circle;endFill=0;exitX=0.5;exitY=1;entryX=0.5;entryY=0;rounded=0;fontSize=20;labelBackgroundColor=none;strokeColor=#A8201A;fontColor=default;" edge="1" parent="1" source="W3CPAuRqWTJg_mLWyuju-481" target="W3CPAuRqWTJg_mLWyuju-482">
          <mxGeometry relative="1" as="geometry">
            <Array as="points" />
          </mxGeometry>
        </mxCell>
        <mxCell id="W3CPAuRqWTJg_mLWyuju-495" value="" style="startArrow=none;endArrow=circle;endFill=0;exitX=0.5;exitY=1;entryX=1;entryY=0.21;rounded=0;fontSize=20;labelBackgroundColor=none;strokeColor=#A8201A;fontColor=default;" edge="1" parent="1" source="W3CPAuRqWTJg_mLWyuju-482" target="W3CPAuRqWTJg_mLWyuju-486">
          <mxGeometry relative="1" as="geometry" />
        </mxCell>
        <mxCell id="W3CPAuRqWTJg_mLWyuju-496" value="" style="curved=1;startArrow=none;endArrow=circle;endFill=0;exitX=0.5;exitY=1;entryX=0.5;entryY=0;rounded=0;fontSize=20;labelBackgroundColor=none;strokeColor=#A8201A;fontColor=default;" edge="1" parent="1" source="W3CPAuRqWTJg_mLWyuju-486" target="W3CPAuRqWTJg_mLWyuju-487">
          <mxGeometry relative="1" as="geometry">
            <Array as="points" />
          </mxGeometry>
        </mxCell>
        <mxCell id="W3CPAuRqWTJg_mLWyuju-497" value="" style="curved=1;startArrow=none;endArrow=circle;endFill=0;exitX=0.5;exitY=1;entryX=0.5;entryY=0;rounded=0;fontSize=20;labelBackgroundColor=none;strokeColor=#A8201A;fontColor=default;" edge="1" parent="1" source="W3CPAuRqWTJg_mLWyuju-487" target="W3CPAuRqWTJg_mLWyuju-488">
          <mxGeometry relative="1" as="geometry">
            <Array as="points" />
          </mxGeometry>
        </mxCell>
        <mxCell id="W3CPAuRqWTJg_mLWyuju-498" value="" style="startArrow=none;endArrow=circle;endFill=0;exitX=0.5;exitY=1;entryX=0.5;entryY=0;rounded=0;fontSize=20;labelBackgroundColor=none;strokeColor=#A8201A;fontColor=default;" edge="1" parent="1" source="W3CPAuRqWTJg_mLWyuju-488" target="W3CPAuRqWTJg_mLWyuju-483">
          <mxGeometry relative="1" as="geometry" />
        </mxCell>
        <mxCell id="W3CPAuRqWTJg_mLWyuju-499" value="&lt;font style=&quot;font-size: 18px;&quot;&gt;HỆ THỐNG&lt;/font&gt;" style="text;align=center;fontStyle=1;verticalAlign=middle;spacingLeft=3;spacingRight=3;strokeColor=#0F8B8D;rotatable=0;points=[[0,0.5],[1,0.5]];portConstraint=eastwest;html=1;fillColor=#FAE5C7;labelBackgroundColor=none;fontColor=#143642;" vertex="1" parent="1">
          <mxGeometry x="60.5" y="8273" width="259.5" height="26" as="geometry" />
        </mxCell>
        <mxCell id="W3CPAuRqWTJg_mLWyuju-500" value="NGƯỜI DÙNG" style="text;align=center;fontStyle=1;verticalAlign=middle;spacingLeft=3;spacingRight=3;strokeColor=#0F8B8D;rotatable=0;points=[[0,0.5],[1,0.5]];portConstraint=eastwest;html=1;fontSize=17;fillColor=#FAE5C7;labelBackgroundColor=none;fontColor=#143642;" vertex="1" parent="1">
          <mxGeometry x="443" y="8144" width="209" height="26" as="geometry" />
        </mxCell>
        <mxCell id="W3CPAuRqWTJg_mLWyuju-501" value="" style="whiteSpace=wrap;strokeWidth=2;fontSize=18;labelBackgroundColor=none;fillColor=#FAE5C7;strokeColor=#0F8B8D;fontColor=#143642;" vertex="1" parent="1">
          <mxGeometry x="-815" y="9816" width="347" height="1317" as="geometry" />
        </mxCell>
        <mxCell id="W3CPAuRqWTJg_mLWyuju-502" value="" style="whiteSpace=wrap;strokeWidth=2;fontSize=18;labelBackgroundColor=none;fillColor=#FAE5C7;strokeColor=#0F8B8D;fontColor=#143642;" vertex="1" parent="1">
          <mxGeometry x="-438" y="9663" width="423" height="1317" as="geometry" />
        </mxCell>
        <mxCell id="W3CPAuRqWTJg_mLWyuju-503" value="Đăng nhập vào hệ thống quản lý" style="fillColor=none;strokeColor=none;fontSize=18;labelBackgroundColor=none;fontColor=#143642;" vertex="1" parent="1">
          <mxGeometry x="-403" y="9688" width="260" height="78" as="geometry" />
        </mxCell>
        <mxCell id="W3CPAuRqWTJg_mLWyuju-504" value="Truy cập mục Quản lý đơn hàng" style="fillColor=none;strokeColor=none;fontSize=18;labelBackgroundColor=none;fontColor=#143642;" vertex="1" parent="1">
          <mxGeometry x="-331" y="10261" width="260" height="78" as="geometry" />
        </mxCell>
        <mxCell id="W3CPAuRqWTJg_mLWyuju-505" value="Chọn đơn hàng cần quản lý" style="fillColor=none;strokeColor=none;fontSize=18;labelBackgroundColor=none;fontColor=#143642;" vertex="1" parent="1">
          <mxGeometry x="-329" y="10389" width="257" height="54" as="geometry" />
        </mxCell>
        <mxCell id="W3CPAuRqWTJg_mLWyuju-506" value="Cập nhật trạng thái đơn hàng" style="fillColor=none;strokeColor=none;fontSize=18;labelBackgroundColor=none;fontColor=#143642;" vertex="1" parent="1">
          <mxGeometry x="-413" y="10493" width="260" height="78" as="geometry" />
        </mxCell>
        <mxCell id="W3CPAuRqWTJg_mLWyuju-507" value="Hiển thị danh sách đơn hàng" style="fillColor=none;strokeColor=none;fontSize=18;labelBackgroundColor=none;fontColor=#143642;" vertex="1" parent="1">
          <mxGeometry x="-413" y="10877" width="260" height="78" as="geometry" />
        </mxCell>
        <mxCell id="W3CPAuRqWTJg_mLWyuju-508" value="Xác thực thông tin đăng nhập của admin" style="fillColor=none;strokeColor=none;fontSize=18;labelBackgroundColor=none;fontColor=#143642;" vertex="1" parent="1">
          <mxGeometry x="-763" y="9841" width="260" height="78" as="geometry" />
        </mxCell>
        <mxCell id="W3CPAuRqWTJg_mLWyuju-509" value="Đăng nhập thành công?" style="rhombus;strokeWidth=2;whiteSpace=wrap;fontSize=18;labelBackgroundColor=none;fillColor=#FAE5C7;strokeColor=#0F8B8D;fontColor=#143642;" vertex="1" parent="1">
          <mxGeometry x="-743" y="9969" width="220" height="220" as="geometry" />
        </mxCell>
        <mxCell id="W3CPAuRqWTJg_mLWyuju-510" value="Truy xuất danh sách đơn hàng" style="fillColor=none;strokeColor=none;fontSize=18;labelBackgroundColor=none;fontColor=#143642;" vertex="1" parent="1">
          <mxGeometry x="-780" y="11030" width="260" height="78" as="geometry" />
        </mxCell>
        <mxCell id="W3CPAuRqWTJg_mLWyuju-511" value="Cập nhật trạng thái đơn hàng" style="fillColor=none;strokeColor=none;fontSize=18;labelBackgroundColor=none;fontColor=#143642;" vertex="1" parent="1">
          <mxGeometry x="-780" y="10621" width="260" height="78" as="geometry" />
        </mxCell>
        <mxCell id="W3CPAuRqWTJg_mLWyuju-512" value="Hiển thị thông báo cập nhật thành công" style="fillColor=none;strokeColor=none;fontSize=18;labelBackgroundColor=none;fontColor=#143642;" vertex="1" parent="1">
          <mxGeometry x="-780" y="10749" width="260" height="78" as="geometry" />
        </mxCell>
        <mxCell id="W3CPAuRqWTJg_mLWyuju-513" value="Hiển thị thông báo lỗi" style="fillColor=none;strokeColor=none;fontSize=18;labelBackgroundColor=none;fontColor=#143642;" vertex="1" parent="1">
          <mxGeometry x="-769" y="10273" width="217" height="54" as="geometry" />
        </mxCell>
        <mxCell id="W3CPAuRqWTJg_mLWyuju-514" value="" style="startArrow=circle;startFill=0;endArrow=circle;endFill=0;exitX=0.5;exitY=1;entryX=1;entryY=0.2;rounded=0;fontSize=18;labelBackgroundColor=none;strokeColor=#A8201A;fontColor=default;" edge="1" parent="1" source="W3CPAuRqWTJg_mLWyuju-503" target="W3CPAuRqWTJg_mLWyuju-508">
          <mxGeometry relative="1" as="geometry" />
        </mxCell>
        <mxCell id="W3CPAuRqWTJg_mLWyuju-515" value="" style="curved=1;startArrow=none;endArrow=block;exitX=0.5;exitY=1;entryX=0.5;entryY=0;rounded=0;fontSize=18;labelBackgroundColor=none;strokeColor=#A8201A;fontColor=default;" edge="1" parent="1" source="W3CPAuRqWTJg_mLWyuju-508" target="W3CPAuRqWTJg_mLWyuju-509">
          <mxGeometry relative="1" as="geometry">
            <Array as="points" />
          </mxGeometry>
        </mxCell>
        <mxCell id="W3CPAuRqWTJg_mLWyuju-516" value="Có" style="startArrow=none;endArrow=circle;endFill=0;exitX=0.73;exitY=1;entryX=0;entryY=0.16;rounded=0;fontSize=18;labelBackgroundColor=none;strokeColor=#A8201A;fontColor=default;" edge="1" parent="1" source="W3CPAuRqWTJg_mLWyuju-509" target="W3CPAuRqWTJg_mLWyuju-504">
          <mxGeometry relative="1" as="geometry" />
        </mxCell>
        <mxCell id="W3CPAuRqWTJg_mLWyuju-517" value="Không" style="startArrow=none;endArrow=circle;endFill=0;exitX=0.41;exitY=1;entryX=0.5;entryY=0;rounded=0;fontSize=18;labelBackgroundColor=none;strokeColor=#A8201A;fontColor=default;" edge="1" parent="1" source="W3CPAuRqWTJg_mLWyuju-509" target="W3CPAuRqWTJg_mLWyuju-513">
          <mxGeometry relative="1" as="geometry" />
        </mxCell>
        <mxCell id="W3CPAuRqWTJg_mLWyuju-518" value="" style="curved=1;startArrow=none;endArrow=circle;endFill=0;exitX=0.5;exitY=1;entryX=0.5;entryY=0;rounded=0;fontSize=18;labelBackgroundColor=none;strokeColor=#A8201A;fontColor=default;" edge="1" parent="1" source="W3CPAuRqWTJg_mLWyuju-504" target="W3CPAuRqWTJg_mLWyuju-505">
          <mxGeometry relative="1" as="geometry">
            <Array as="points" />
          </mxGeometry>
        </mxCell>
        <mxCell id="W3CPAuRqWTJg_mLWyuju-519" value="" style="startArrow=none;endArrow=circle;endFill=0;exitX=0.67;exitY=1;entryX=0.67;entryY=0;rounded=0;fontSize=18;labelBackgroundColor=none;strokeColor=#A8201A;fontColor=default;" edge="1" parent="1" source="W3CPAuRqWTJg_mLWyuju-505" target="W3CPAuRqWTJg_mLWyuju-510">
          <mxGeometry relative="1" as="geometry" />
        </mxCell>
        <mxCell id="W3CPAuRqWTJg_mLWyuju-520" value="" style="curved=1;startArrow=none;endArrow=circle;endFill=0;exitX=0.33;exitY=1;entryX=0.5;entryY=0;rounded=0;fontSize=18;labelBackgroundColor=none;strokeColor=#A8201A;fontColor=default;" edge="1" parent="1" source="W3CPAuRqWTJg_mLWyuju-505" target="W3CPAuRqWTJg_mLWyuju-506">
          <mxGeometry relative="1" as="geometry">
            <Array as="points" />
          </mxGeometry>
        </mxCell>
        <mxCell id="W3CPAuRqWTJg_mLWyuju-521" value="" style="startArrow=none;endArrow=circle;endFill=0;exitX=0.5;exitY=1;entryX=1;entryY=0.21;rounded=0;fontSize=18;labelBackgroundColor=none;strokeColor=#A8201A;fontColor=default;" edge="1" parent="1" source="W3CPAuRqWTJg_mLWyuju-506" target="W3CPAuRqWTJg_mLWyuju-511">
          <mxGeometry relative="1" as="geometry" />
        </mxCell>
        <mxCell id="W3CPAuRqWTJg_mLWyuju-522" value="" style="curved=1;startArrow=none;endArrow=circle;endFill=0;exitX=0.5;exitY=1;entryX=0.5;entryY=0;rounded=0;fontSize=18;labelBackgroundColor=none;strokeColor=#A8201A;fontColor=default;" edge="1" parent="1" source="W3CPAuRqWTJg_mLWyuju-511" target="W3CPAuRqWTJg_mLWyuju-512">
          <mxGeometry relative="1" as="geometry">
            <Array as="points" />
          </mxGeometry>
        </mxCell>
        <mxCell id="W3CPAuRqWTJg_mLWyuju-523" value="" style="startArrow=none;endArrow=circle;endFill=0;exitX=0.5;exitY=1;entryX=0;entryY=0.21;rounded=0;fontSize=18;labelBackgroundColor=none;strokeColor=#A8201A;fontColor=default;" edge="1" parent="1" source="W3CPAuRqWTJg_mLWyuju-512" target="W3CPAuRqWTJg_mLWyuju-507">
          <mxGeometry relative="1" as="geometry" />
        </mxCell>
        <mxCell id="W3CPAuRqWTJg_mLWyuju-524" value="" style="startArrow=none;endArrow=block;exitX=0.5;exitY=1;entryX=0.33;entryY=0;rounded=0;fontSize=18;labelBackgroundColor=none;strokeColor=#A8201A;fontColor=default;" edge="1" parent="1" source="W3CPAuRqWTJg_mLWyuju-507" target="W3CPAuRqWTJg_mLWyuju-510">
          <mxGeometry relative="1" as="geometry" />
        </mxCell>
        <mxCell id="W3CPAuRqWTJg_mLWyuju-525" value="&lt;font style=&quot;font-size: 18px;&quot;&gt;HỆ THỐNG&lt;/font&gt;" style="text;align=center;fontStyle=1;verticalAlign=middle;spacingLeft=3;spacingRight=3;strokeColor=#0F8B8D;rotatable=0;points=[[0,0.5],[1,0.5]];portConstraint=eastwest;html=1;fillColor=#FAE5C7;labelBackgroundColor=none;fontColor=#143642;" vertex="1" parent="1">
          <mxGeometry x="-773" y="9790" width="259.5" height="26" as="geometry" />
        </mxCell>
        <mxCell id="W3CPAuRqWTJg_mLWyuju-526" value="ADMIN" style="text;align=center;fontStyle=1;verticalAlign=middle;spacingLeft=3;spacingRight=3;strokeColor=#0F8B8D;rotatable=0;points=[[0,0.5],[1,0.5]];portConstraint=eastwest;html=1;fontSize=17;fillColor=#FAE5C7;labelBackgroundColor=none;fontColor=#143642;" vertex="1" parent="1">
          <mxGeometry x="-341" y="9637" width="209" height="26" as="geometry" />
        </mxCell>
        <mxCell id="W3CPAuRqWTJg_mLWyuju-527" value="" style="whiteSpace=wrap;strokeWidth=2;fontSize=18;labelBackgroundColor=none;fillColor=#FAE5C7;strokeColor=#0F8B8D;fontColor=#143642;" vertex="1" parent="1">
          <mxGeometry x="20" y="11411" width="330" height="256" as="geometry" />
        </mxCell>
        <mxCell id="W3CPAuRqWTJg_mLWyuju-528" value="" style="whiteSpace=wrap;strokeWidth=2;fontSize=18;labelBackgroundColor=none;fillColor=#FAE5C7;strokeColor=#0F8B8D;fontColor=#143642;" vertex="1" parent="1">
          <mxGeometry x="370" y="11154" width="330" height="666" as="geometry" />
        </mxCell>
        <mxCell id="W3CPAuRqWTJg_mLWyuju-529" value="Truy cập trang sản phẩm" style="fillColor=none;strokeColor=none;fontSize=18;labelBackgroundColor=none;fontColor=#143642;" vertex="1" parent="1">
          <mxGeometry x="415" y="11179" width="239" height="54" as="geometry" />
        </mxCell>
        <mxCell id="W3CPAuRqWTJg_mLWyuju-530" value="Chọn sản phẩm cần xem chi tiết" style="fillColor=none;strokeColor=none;fontSize=18;labelBackgroundColor=none;fontColor=#143642;" vertex="1" parent="1">
          <mxGeometry x="405" y="11283" width="260" height="78" as="geometry" />
        </mxCell>
        <mxCell id="W3CPAuRqWTJg_mLWyuju-531" value="Xem thông tin chi tiết sản phẩm" style="fillColor=none;strokeColor=none;fontSize=18;labelBackgroundColor=none;fontColor=#143642;" vertex="1" parent="1">
          <mxGeometry x="405" y="11717" width="260" height="78" as="geometry" />
        </mxCell>
        <mxCell id="W3CPAuRqWTJg_mLWyuju-532" value="Truy xuất thông tin chi tiết sản phẩm" style="fillColor=none;strokeColor=none;fontSize=18;labelBackgroundColor=none;fontColor=#143642;" vertex="1" parent="1">
          <mxGeometry x="55" y="11436" width="260" height="78" as="geometry" />
        </mxCell>
        <mxCell id="W3CPAuRqWTJg_mLWyuju-533" value="Hiển thị thông tin sản phẩm" style="fillColor=none;strokeColor=none;fontSize=18;labelBackgroundColor=none;fontColor=#143642;" vertex="1" parent="1">
          <mxGeometry x="55" y="11564" width="260" height="78" as="geometry" />
        </mxCell>
        <mxCell id="W3CPAuRqWTJg_mLWyuju-534" value="" style="curved=1;startArrow=circle;startFill=0;endArrow=circle;endFill=0;exitX=0.5;exitY=1;entryX=0.5;entryY=0;rounded=0;fontSize=18;labelBackgroundColor=none;strokeColor=#A8201A;fontColor=default;" edge="1" parent="1" source="W3CPAuRqWTJg_mLWyuju-529" target="W3CPAuRqWTJg_mLWyuju-530">
          <mxGeometry relative="1" as="geometry">
            <Array as="points" />
          </mxGeometry>
        </mxCell>
        <mxCell id="W3CPAuRqWTJg_mLWyuju-535" value="" style="startArrow=none;endArrow=circle;endFill=0;exitX=0.5;exitY=1;entryX=1;entryY=0.2;rounded=0;fontSize=18;labelBackgroundColor=none;strokeColor=#A8201A;fontColor=default;" edge="1" parent="1" source="W3CPAuRqWTJg_mLWyuju-530" target="W3CPAuRqWTJg_mLWyuju-532">
          <mxGeometry relative="1" as="geometry" />
        </mxCell>
        <mxCell id="W3CPAuRqWTJg_mLWyuju-536" value="" style="curved=1;startArrow=none;endArrow=circle;endFill=0;exitX=0.5;exitY=1;entryX=0.5;entryY=0;rounded=0;fontSize=18;labelBackgroundColor=none;strokeColor=#A8201A;fontColor=default;" edge="1" parent="1" source="W3CPAuRqWTJg_mLWyuju-532" target="W3CPAuRqWTJg_mLWyuju-533">
          <mxGeometry relative="1" as="geometry">
            <Array as="points" />
          </mxGeometry>
        </mxCell>
        <mxCell id="W3CPAuRqWTJg_mLWyuju-537" value="" style="startArrow=none;endArrow=circle;endFill=0;exitX=0.5;exitY=1;entryX=0.5;entryY=0;rounded=0;fontSize=18;labelBackgroundColor=none;strokeColor=#A8201A;fontColor=default;" edge="1" parent="1" source="W3CPAuRqWTJg_mLWyuju-533" target="W3CPAuRqWTJg_mLWyuju-531">
          <mxGeometry relative="1" as="geometry" />
        </mxCell>
        <mxCell id="W3CPAuRqWTJg_mLWyuju-538" value="&lt;font style=&quot;font-size: 18px;&quot;&gt;HỆ THỐNG&lt;/font&gt;" style="text;align=center;fontStyle=1;verticalAlign=middle;spacingLeft=3;spacingRight=3;strokeColor=#0F8B8D;rotatable=0;points=[[0,0.5],[1,0.5]];portConstraint=eastwest;html=1;fillColor=#FAE5C7;labelBackgroundColor=none;fontColor=#143642;" vertex="1" parent="1">
          <mxGeometry x="55.5" y="11385" width="259.5" height="26" as="geometry" />
        </mxCell>
        <mxCell id="W3CPAuRqWTJg_mLWyuju-539" value="NGƯỜI DÙNG" style="text;align=center;fontStyle=1;verticalAlign=middle;spacingLeft=3;spacingRight=3;strokeColor=#0F8B8D;rotatable=0;points=[[0,0.5],[1,0.5]];portConstraint=eastwest;html=1;fontSize=17;fillColor=#FAE5C7;labelBackgroundColor=none;fontColor=#143642;" vertex="1" parent="1">
          <mxGeometry x="425.5" y="11128.5" width="209" height="26" as="geometry" />
        </mxCell>
        <mxCell id="W3CPAuRqWTJg_mLWyuju-540" value="" style="whiteSpace=wrap;strokeWidth=2;fontSize=18;fontStyle=0;labelBackgroundColor=none;fillColor=#FAE5C7;strokeColor=#0F8B8D;fontColor=#143642;" vertex="1" parent="1">
          <mxGeometry x="1512" y="12098" width="640" height="545" as="geometry" />
        </mxCell>
        <mxCell id="W3CPAuRqWTJg_mLWyuju-541" value="" style="whiteSpace=wrap;strokeWidth=2;fontSize=18;fontStyle=0;labelBackgroundColor=none;fillColor=#FAE5C7;strokeColor=#0F8B8D;fontColor=#143642;" vertex="1" parent="1">
          <mxGeometry x="2172" y="11841" width="330" height="955" as="geometry" />
        </mxCell>
        <mxCell id="W3CPAuRqWTJg_mLWyuju-542" value="Nhập từ khóa tìm kiếm sản phẩm" style="fillColor=none;strokeColor=none;fontSize=18;fontStyle=0;labelBackgroundColor=none;fontColor=#143642;" vertex="1" parent="1">
          <mxGeometry x="2207" y="11866" width="260" height="78" as="geometry" />
        </mxCell>
        <mxCell id="W3CPAuRqWTJg_mLWyuju-543" value="Nhấn tìm kiếm" style="fillColor=none;strokeColor=none;fontSize=18;fontStyle=0;labelBackgroundColor=none;fontColor=#143642;" vertex="1" parent="1">
          <mxGeometry x="2254" y="11994" width="167" height="54" as="geometry" />
        </mxCell>
        <mxCell id="W3CPAuRqWTJg_mLWyuju-544" value="Chọn sản phẩm từ kết quả tìm kiếm" style="fillColor=none;strokeColor=none;fontSize=18;fontStyle=0;labelBackgroundColor=none;fontColor=#143642;" vertex="1" parent="1">
          <mxGeometry x="2207" y="12693" width="260" height="78" as="geometry" />
        </mxCell>
        <mxCell id="W3CPAuRqWTJg_mLWyuju-545" value="Tiến hành tìm kiếm sản phẩm theo từ khóa" style="fillColor=none;strokeColor=none;fontSize=18;fontStyle=0;labelBackgroundColor=none;fontColor=#143642;" vertex="1" parent="1">
          <mxGeometry x="1702" y="12123" width="260" height="78" as="geometry" />
        </mxCell>
        <mxCell id="W3CPAuRqWTJg_mLWyuju-546" value="Có sản phẩm phù hợp?" style="rhombus;strokeWidth=2;whiteSpace=wrap;fontSize=18;fontStyle=0;labelBackgroundColor=none;fillColor=#FAE5C7;strokeColor=#0F8B8D;fontColor=#143642;" vertex="1" parent="1">
          <mxGeometry x="1724" y="12251" width="216" height="216" as="geometry" />
        </mxCell>
        <mxCell id="W3CPAuRqWTJg_mLWyuju-547" value="Hiển thị danh sách sản phẩm phù hợp" style="fillColor=none;strokeColor=none;fontSize=14;fontStyle=0;labelBackgroundColor=none;fontColor=#143642;" vertex="1" parent="1">
          <mxGeometry x="1547" y="12540" width="260" height="78" as="geometry" />
        </mxCell>
        <mxCell id="W3CPAuRqWTJg_mLWyuju-555" value="" style="edgeStyle=orthogonalEdgeStyle;rounded=0;orthogonalLoop=1;jettySize=auto;html=1;strokeColor=#A8201A;fontColor=default;fillColor=#FAE5C7;fontStyle=0;labelBackgroundColor=none;" edge="1" parent="1" source="W3CPAuRqWTJg_mLWyuju-548" target="W3CPAuRqWTJg_mLWyuju-547">
          <mxGeometry relative="1" as="geometry" />
        </mxCell>
        <mxCell id="W3CPAuRqWTJg_mLWyuju-548" value="Hiển thị thông báo không có sản phẩm phù hợp" style="fillColor=none;strokeColor=none;fontSize=14;fontStyle=0;labelBackgroundColor=none;fontColor=#143642;" vertex="1" parent="1">
          <mxGeometry x="1857" y="12540" width="260" height="78" as="geometry" />
        </mxCell>
        <mxCell id="W3CPAuRqWTJg_mLWyuju-549" value="" style="curved=1;startArrow=circle;startFill=0;endArrow=circle;endFill=0;exitX=0.5;exitY=1;entryX=0.5;entryY=0;rounded=0;fontSize=18;fontStyle=0;labelBackgroundColor=none;strokeColor=#A8201A;fontColor=default;" edge="1" parent="1" source="W3CPAuRqWTJg_mLWyuju-542" target="W3CPAuRqWTJg_mLWyuju-543">
          <mxGeometry relative="1" as="geometry">
            <Array as="points" />
          </mxGeometry>
        </mxCell>
        <mxCell id="W3CPAuRqWTJg_mLWyuju-550" value="" style="startArrow=none;endArrow=circle;endFill=0;exitX=0.5;exitY=1;entryX=1;entryY=0.29;rounded=0;fontSize=18;fontStyle=0;labelBackgroundColor=none;strokeColor=#A8201A;fontColor=default;" edge="1" parent="1" source="W3CPAuRqWTJg_mLWyuju-543" target="W3CPAuRqWTJg_mLWyuju-545">
          <mxGeometry relative="1" as="geometry" />
        </mxCell>
        <mxCell id="W3CPAuRqWTJg_mLWyuju-551" value="" style="curved=1;startArrow=none;endArrow=block;exitX=0.5;exitY=1;entryX=0.5;entryY=0;rounded=0;fontSize=18;fontStyle=0;labelBackgroundColor=none;strokeColor=#A8201A;fontColor=default;" edge="1" parent="1" source="W3CPAuRqWTJg_mLWyuju-545" target="W3CPAuRqWTJg_mLWyuju-546">
          <mxGeometry relative="1" as="geometry">
            <Array as="points" />
          </mxGeometry>
        </mxCell>
        <mxCell id="W3CPAuRqWTJg_mLWyuju-552" value="Có" style="startArrow=none;endArrow=circle;endFill=0;exitX=0;exitY=0.97;entryX=0.5;entryY=0;rounded=0;fontSize=18;fontStyle=0;labelBackgroundColor=none;strokeColor=#A8201A;fontColor=default;" edge="1" parent="1" source="W3CPAuRqWTJg_mLWyuju-546" target="W3CPAuRqWTJg_mLWyuju-547">
          <mxGeometry relative="1" as="geometry" />
        </mxCell>
        <mxCell id="W3CPAuRqWTJg_mLWyuju-553" value="Không" style="startArrow=none;endArrow=circle;endFill=0;exitX=1;exitY=0.97;entryX=0.5;entryY=0;rounded=0;fontSize=18;fontStyle=0;labelBackgroundColor=none;strokeColor=#A8201A;fontColor=default;" edge="1" parent="1" source="W3CPAuRqWTJg_mLWyuju-546" target="W3CPAuRqWTJg_mLWyuju-548">
          <mxGeometry relative="1" as="geometry" />
        </mxCell>
        <mxCell id="W3CPAuRqWTJg_mLWyuju-554" value="" style="startArrow=none;endArrow=circle;endFill=0;exitX=0.5;exitY=1;entryX=0.5;entryY=0;rounded=0;fontSize=18;fontStyle=0;labelBackgroundColor=none;strokeColor=#A8201A;fontColor=default;" edge="1" parent="1" source="W3CPAuRqWTJg_mLWyuju-547" target="W3CPAuRqWTJg_mLWyuju-544">
          <mxGeometry relative="1" as="geometry" />
        </mxCell>
        <mxCell id="W3CPAuRqWTJg_mLWyuju-556" value="&lt;font style=&quot;font-size: 18px;&quot;&gt;HỆ THỐNG&lt;/font&gt;" style="text;align=center;fontStyle=1;verticalAlign=middle;spacingLeft=3;spacingRight=3;strokeColor=#0F8B8D;rotatable=0;points=[[0,0.5],[1,0.5]];portConstraint=eastwest;html=1;fillColor=#FAE5C7;labelBackgroundColor=none;fontColor=#143642;" vertex="1" parent="1">
          <mxGeometry x="1718" y="12072" width="259.5" height="26" as="geometry" />
        </mxCell>
        <mxCell id="W3CPAuRqWTJg_mLWyuju-557" value="NGƯỜI DÙNG" style="text;align=center;fontStyle=1;verticalAlign=middle;spacingLeft=3;spacingRight=3;strokeColor=#0F8B8D;rotatable=0;points=[[0,0.5],[1,0.5]];portConstraint=eastwest;html=1;fontSize=17;fillColor=#FAE5C7;labelBackgroundColor=none;fontColor=#143642;" vertex="1" parent="1">
          <mxGeometry x="2237" y="11815" width="209" height="26" as="geometry" />
        </mxCell>
        <mxCell id="W3CPAuRqWTJg_mLWyuju-558" value="" style="whiteSpace=wrap;strokeWidth=2;fontSize=21;labelBackgroundColor=none;fillColor=#FAE5C7;strokeColor=#0F8B8D;fontColor=#143642;" vertex="1" parent="1">
          <mxGeometry x="151.5" y="13293" width="950" height="1213" as="geometry" />
        </mxCell>
        <mxCell id="W3CPAuRqWTJg_mLWyuju-559" value="" style="whiteSpace=wrap;strokeWidth=2;fontSize=21;labelBackgroundColor=none;fillColor=#FAE5C7;strokeColor=#0F8B8D;fontColor=#143642;" vertex="1" parent="1">
          <mxGeometry x="1121.5" y="13140" width="962" height="1213" as="geometry" />
        </mxCell>
        <mxCell id="W3CPAuRqWTJg_mLWyuju-560" value="Đăng nhập vào hệ thống quản lý" style="fillColor=none;strokeColor=none;fontSize=21;labelBackgroundColor=none;fontColor=#143642;" vertex="1" parent="1">
          <mxGeometry x="1472.5" y="13165" width="260" height="78" as="geometry" />
        </mxCell>
        <mxCell id="W3CPAuRqWTJg_mLWyuju-561" value="Truy cập mục Quản lý nhân viên" style="fillColor=none;strokeColor=none;fontSize=21;labelBackgroundColor=none;fontColor=#143642;" vertex="1" parent="1">
          <mxGeometry x="1481.5" y="13738" width="260" height="78" as="geometry" />
        </mxCell>
        <mxCell id="W3CPAuRqWTJg_mLWyuju-562" value="Thêm nhân viên mới" style="fillColor=none;strokeColor=none;fontSize=21;labelBackgroundColor=none;fontColor=#143642;" vertex="1" parent="1">
          <mxGeometry x="1366.5" y="13878" width="207" height="54" as="geometry" />
        </mxCell>
        <mxCell id="W3CPAuRqWTJg_mLWyuju-563" value="Cập nhật thông tin nhân viên" style="fillColor=none;strokeColor=none;fontSize=21;labelBackgroundColor=none;fontColor=#143642;" vertex="1" parent="1">
          <mxGeometry x="1623.5" y="13866" width="260" height="78" as="geometry" />
        </mxCell>
        <mxCell id="W3CPAuRqWTJg_mLWyuju-564" value="Xóa nhân viên" style="fillColor=none;strokeColor=none;fontSize=21;labelBackgroundColor=none;fontColor=#143642;" vertex="1" parent="1">
          <mxGeometry x="1156.5" y="13878" width="160" height="54" as="geometry" />
        </mxCell>
        <mxCell id="W3CPAuRqWTJg_mLWyuju-565" value="Hiển thị danh sách nhân viên" style="fillColor=none;strokeColor=none;fontSize=21;labelBackgroundColor=none;fontColor=#143642;" vertex="1" parent="1">
          <mxGeometry x="1788.5" y="14250" width="260" height="78" as="geometry" />
        </mxCell>
        <mxCell id="W3CPAuRqWTJg_mLWyuju-566" value="Xác thực thông tin đăng nhập của admin" style="fillColor=none;strokeColor=none;fontSize=21;labelBackgroundColor=none;fontColor=#143642;" vertex="1" parent="1">
          <mxGeometry x="513.5" y="13318" width="260" height="78" as="geometry" />
        </mxCell>
        <mxCell id="W3CPAuRqWTJg_mLWyuju-567" value="Đăng nhập thành công?" style="rhombus;strokeWidth=2;whiteSpace=wrap;fontSize=21;labelBackgroundColor=none;fillColor=#FAE5C7;strokeColor=#0F8B8D;fontColor=#143642;" vertex="1" parent="1">
          <mxGeometry x="533.5" y="13446" width="220" height="220" as="geometry" />
        </mxCell>
        <mxCell id="W3CPAuRqWTJg_mLWyuju-568" value="Truy xuất danh sách nhân viên" style="fillColor=none;strokeColor=none;fontSize=21;labelBackgroundColor=none;fontColor=#143642;" vertex="1" parent="1">
          <mxGeometry x="496.5" y="14403" width="260" height="78" as="geometry" />
        </mxCell>
        <mxCell id="W3CPAuRqWTJg_mLWyuju-569" value="Thêm nhân viên vào cơ sở dữ liệu" style="fillColor=none;strokeColor=none;fontSize=21;labelBackgroundColor=none;fontColor=#143642;" vertex="1" parent="1">
          <mxGeometry x="496.5" y="13994" width="260" height="78" as="geometry" />
        </mxCell>
        <mxCell id="W3CPAuRqWTJg_mLWyuju-570" value="Cập nhật thông tin nhân viên" style="fillColor=none;strokeColor=none;fontSize=21;labelBackgroundColor=none;fontColor=#143642;" vertex="1" parent="1">
          <mxGeometry x="806.5" y="13994" width="260" height="78" as="geometry" />
        </mxCell>
        <mxCell id="W3CPAuRqWTJg_mLWyuju-571" value="Xóa nhân viên khỏi cơ sở dữ liệu" style="fillColor=none;strokeColor=none;fontSize=21;labelBackgroundColor=none;fontColor=#143642;" vertex="1" parent="1">
          <mxGeometry x="186.5" y="13994" width="260" height="78" as="geometry" />
        </mxCell>
        <mxCell id="W3CPAuRqWTJg_mLWyuju-572" value="Hiển thị thông báo thay đổi thành công" style="fillColor=none;strokeColor=none;fontSize=21;labelBackgroundColor=none;fontColor=#143642;" vertex="1" parent="1">
          <mxGeometry x="496.5" y="14122" width="260" height="78" as="geometry" />
        </mxCell>
        <mxCell id="W3CPAuRqWTJg_mLWyuju-573" value="Hiển thị thông báo lỗi" style="fillColor=none;strokeColor=none;fontSize=21;labelBackgroundColor=none;fontColor=#143642;" vertex="1" parent="1">
          <mxGeometry x="507.5" y="13750" width="217" height="54" as="geometry" />
        </mxCell>
        <mxCell id="W3CPAuRqWTJg_mLWyuju-574" value="" style="startArrow=circle;startFill=0;endArrow=circle;endFill=0;exitX=0.5;exitY=1;entryX=1;entryY=0.39;rounded=0;fontSize=21;labelBackgroundColor=none;strokeColor=#A8201A;fontColor=default;" edge="1" parent="1" source="W3CPAuRqWTJg_mLWyuju-560" target="W3CPAuRqWTJg_mLWyuju-566">
          <mxGeometry relative="1" as="geometry" />
        </mxCell>
        <mxCell id="W3CPAuRqWTJg_mLWyuju-575" value="" style="curved=1;startArrow=none;endArrow=block;exitX=0.5;exitY=1;entryX=0.5;entryY=0;rounded=0;fontSize=21;labelBackgroundColor=none;strokeColor=#A8201A;fontColor=default;" edge="1" parent="1" source="W3CPAuRqWTJg_mLWyuju-566" target="W3CPAuRqWTJg_mLWyuju-567">
          <mxGeometry relative="1" as="geometry">
            <Array as="points" />
          </mxGeometry>
        </mxCell>
        <mxCell id="W3CPAuRqWTJg_mLWyuju-576" value="Có" style="startArrow=none;endArrow=circle;endFill=0;exitX=0.73;exitY=1;entryX=0;entryY=0.36;rounded=0;fontSize=21;labelBackgroundColor=none;strokeColor=#A8201A;fontColor=default;" edge="1" parent="1" source="W3CPAuRqWTJg_mLWyuju-567" target="W3CPAuRqWTJg_mLWyuju-561">
          <mxGeometry relative="1" as="geometry" />
        </mxCell>
        <mxCell id="W3CPAuRqWTJg_mLWyuju-577" value="Không" style="startArrow=none;endArrow=circle;endFill=0;exitX=0.41;exitY=1;entryX=0.5;entryY=0;rounded=0;fontSize=21;labelBackgroundColor=none;strokeColor=#A8201A;fontColor=default;" edge="1" parent="1" source="W3CPAuRqWTJg_mLWyuju-567" target="W3CPAuRqWTJg_mLWyuju-573">
          <mxGeometry relative="1" as="geometry" />
        </mxCell>
        <mxCell id="W3CPAuRqWTJg_mLWyuju-578" value="" style="startArrow=none;endArrow=circle;endFill=0;exitX=0.17;exitY=1;entryX=0.5;entryY=0;rounded=0;fontSize=21;labelBackgroundColor=none;strokeColor=#A8201A;fontColor=default;" edge="1" parent="1" source="W3CPAuRqWTJg_mLWyuju-561" target="W3CPAuRqWTJg_mLWyuju-562">
          <mxGeometry relative="1" as="geometry" />
        </mxCell>
        <mxCell id="W3CPAuRqWTJg_mLWyuju-579" value="" style="startArrow=none;endArrow=circle;endFill=0;exitX=0.83;exitY=1;entryX=0.5;entryY=0;rounded=0;fontSize=21;labelBackgroundColor=none;strokeColor=#A8201A;fontColor=default;" edge="1" parent="1" source="W3CPAuRqWTJg_mLWyuju-561" target="W3CPAuRqWTJg_mLWyuju-563">
          <mxGeometry relative="1" as="geometry" />
        </mxCell>
        <mxCell id="W3CPAuRqWTJg_mLWyuju-580" value="" style="startArrow=none;endArrow=circle;endFill=0;exitX=0;exitY=0.78;entryX=0.5;entryY=0;rounded=0;fontSize=21;labelBackgroundColor=none;strokeColor=#A8201A;fontColor=default;" edge="1" parent="1" source="W3CPAuRqWTJg_mLWyuju-561" target="W3CPAuRqWTJg_mLWyuju-564">
          <mxGeometry relative="1" as="geometry" />
        </mxCell>
        <mxCell id="W3CPAuRqWTJg_mLWyuju-581" value="" style="startArrow=none;endArrow=circle;endFill=0;exitX=1;exitY=0.85;entryX=0.5;entryY=0;rounded=0;fontSize=21;labelBackgroundColor=none;strokeColor=#A8201A;fontColor=default;" edge="1" parent="1" source="W3CPAuRqWTJg_mLWyuju-561" target="W3CPAuRqWTJg_mLWyuju-565">
          <mxGeometry relative="1" as="geometry" />
        </mxCell>
        <mxCell id="W3CPAuRqWTJg_mLWyuju-582" value="" style="startArrow=none;endArrow=circle;endFill=0;exitX=0.5;exitY=1;entryX=1;entryY=0.37;rounded=0;fontSize=21;labelBackgroundColor=none;strokeColor=#A8201A;fontColor=default;" edge="1" parent="1" source="W3CPAuRqWTJg_mLWyuju-562" target="W3CPAuRqWTJg_mLWyuju-569">
          <mxGeometry relative="1" as="geometry" />
        </mxCell>
        <mxCell id="W3CPAuRqWTJg_mLWyuju-583" value="" style="startArrow=none;endArrow=circle;endFill=0;exitX=0.5;exitY=1;entryX=1;entryY=0.37;rounded=0;fontSize=21;labelBackgroundColor=none;strokeColor=#A8201A;fontColor=default;" edge="1" parent="1" source="W3CPAuRqWTJg_mLWyuju-563" target="W3CPAuRqWTJg_mLWyuju-570">
          <mxGeometry relative="1" as="geometry" />
        </mxCell>
        <mxCell id="W3CPAuRqWTJg_mLWyuju-584" value="" style="startArrow=none;endArrow=circle;endFill=0;exitX=0.5;exitY=1;entryX=1;entryY=0.38;rounded=0;fontSize=21;labelBackgroundColor=none;strokeColor=#A8201A;fontColor=default;" edge="1" parent="1" source="W3CPAuRqWTJg_mLWyuju-564" target="W3CPAuRqWTJg_mLWyuju-571">
          <mxGeometry relative="1" as="geometry" />
        </mxCell>
        <mxCell id="W3CPAuRqWTJg_mLWyuju-585" value="" style="startArrow=none;endArrow=circle;endFill=0;exitX=0.5;exitY=1;entryX=0;entryY=0.16;rounded=0;fontSize=21;labelBackgroundColor=none;strokeColor=#A8201A;fontColor=default;" edge="1" parent="1" source="W3CPAuRqWTJg_mLWyuju-571" target="W3CPAuRqWTJg_mLWyuju-572">
          <mxGeometry relative="1" as="geometry" />
        </mxCell>
        <mxCell id="W3CPAuRqWTJg_mLWyuju-586" value="" style="curved=1;startArrow=none;endArrow=block;exitX=0.5;exitY=1;entryX=0.5;entryY=0;rounded=0;fontSize=21;labelBackgroundColor=none;strokeColor=#A8201A;fontColor=default;" edge="1" parent="1" source="W3CPAuRqWTJg_mLWyuju-569" target="W3CPAuRqWTJg_mLWyuju-572">
          <mxGeometry relative="1" as="geometry">
            <Array as="points" />
          </mxGeometry>
        </mxCell>
        <mxCell id="W3CPAuRqWTJg_mLWyuju-587" value="" style="startArrow=none;endArrow=block;exitX=0.5;exitY=1;entryX=1;entryY=0.16;rounded=0;fontSize=21;labelBackgroundColor=none;strokeColor=#A8201A;fontColor=default;" edge="1" parent="1" source="W3CPAuRqWTJg_mLWyuju-570" target="W3CPAuRqWTJg_mLWyuju-572">
          <mxGeometry relative="1" as="geometry" />
        </mxCell>
        <mxCell id="W3CPAuRqWTJg_mLWyuju-588" value="" style="startArrow=none;endArrow=block;exitX=0.5;exitY=1;entryX=0;entryY=0.42;rounded=0;fontSize=21;labelBackgroundColor=none;strokeColor=#A8201A;fontColor=default;" edge="1" parent="1" source="W3CPAuRqWTJg_mLWyuju-572" target="W3CPAuRqWTJg_mLWyuju-565">
          <mxGeometry relative="1" as="geometry" />
        </mxCell>
        <mxCell id="W3CPAuRqWTJg_mLWyuju-589" value="" style="startArrow=none;endArrow=circle;endFill=0;exitX=0.5;exitY=1;entryX=0.5;entryY=0;rounded=0;fontSize=21;labelBackgroundColor=none;strokeColor=#A8201A;fontColor=default;" edge="1" parent="1" source="W3CPAuRqWTJg_mLWyuju-565" target="W3CPAuRqWTJg_mLWyuju-568">
          <mxGeometry relative="1" as="geometry" />
        </mxCell>
        <mxCell id="W3CPAuRqWTJg_mLWyuju-590" value="&lt;font&gt;HỆ THỐNG&lt;/font&gt;" style="text;align=center;fontStyle=1;verticalAlign=middle;spacingLeft=3;spacingRight=3;strokeColor=#0F8B8D;rotatable=0;points=[[0,0.5],[1,0.5]];portConstraint=eastwest;html=1;fillColor=#FAE5C7;labelBackgroundColor=none;fontSize=28;fontColor=#143642;" vertex="1" parent="1">
          <mxGeometry x="463" y="13264" width="318.5" height="26" as="geometry" />
        </mxCell>
        <mxCell id="W3CPAuRqWTJg_mLWyuju-591" value="ADMIN" style="text;align=center;fontStyle=1;verticalAlign=middle;spacingLeft=3;spacingRight=3;strokeColor=#0F8B8D;rotatable=0;points=[[0,0.5],[1,0.5]];portConstraint=eastwest;html=1;fontSize=24;fillColor=#FAE5C7;labelBackgroundColor=none;fontColor=#143642;" vertex="1" parent="1">
          <mxGeometry x="1472.5" y="13113" width="261.5" height="24" as="geometry" />
        </mxCell>
        <mxCell id="W3CPAuRqWTJg_mLWyuju-625" value="" style="whiteSpace=wrap;strokeWidth=2;fontSize=23;labelBackgroundColor=none;fillColor=#FAE5C7;strokeColor=#0F8B8D;fontColor=#143642;" vertex="1" parent="1">
          <mxGeometry x="-3009" y="13888" width="971" height="1213" as="geometry" />
        </mxCell>
        <mxCell id="W3CPAuRqWTJg_mLWyuju-626" value="" style="whiteSpace=wrap;strokeWidth=2;fontSize=23;labelBackgroundColor=none;fillColor=#FAE5C7;strokeColor=#0F8B8D;fontColor=#143642;" vertex="1" parent="1">
          <mxGeometry x="-2018" y="13735" width="985" height="1213" as="geometry" />
        </mxCell>
        <mxCell id="W3CPAuRqWTJg_mLWyuju-627" value="Đăng nhập vào hệ thống quản lý" style="fillColor=none;strokeColor=none;fontSize=23;labelBackgroundColor=none;fontColor=#143642;" vertex="1" parent="1">
          <mxGeometry x="-1656" y="13760" width="260" height="78" as="geometry" />
        </mxCell>
        <mxCell id="W3CPAuRqWTJg_mLWyuju-628" value="Truy cập mục Quản lý người dùng" style="fillColor=none;strokeColor=none;fontSize=23;labelBackgroundColor=none;fontColor=#143642;" vertex="1" parent="1">
          <mxGeometry x="-1638" y="14333" width="260" height="78" as="geometry" />
        </mxCell>
        <mxCell id="W3CPAuRqWTJg_mLWyuju-629" value="Thêm người dùng mới" style="fillColor=none;strokeColor=none;fontSize=23;labelBackgroundColor=none;fontColor=#143642;" vertex="1" parent="1">
          <mxGeometry x="-1761" y="14473" width="218" height="54" as="geometry" />
        </mxCell>
        <mxCell id="W3CPAuRqWTJg_mLWyuju-630" value="Cập nhật thông tin người dùng" style="fillColor=none;strokeColor=none;fontSize=23;labelBackgroundColor=none;fontColor=#143642;" vertex="1" parent="1">
          <mxGeometry x="-1493" y="14461" width="260" height="78" as="geometry" />
        </mxCell>
        <mxCell id="W3CPAuRqWTJg_mLWyuju-631" value="Xóa người dùng" style="fillColor=none;strokeColor=none;fontSize=23;labelBackgroundColor=none;fontColor=#143642;" vertex="1" parent="1">
          <mxGeometry x="-1983" y="14473" width="172" height="54" as="geometry" />
        </mxCell>
        <mxCell id="W3CPAuRqWTJg_mLWyuju-632" value="Hiển thị danh sách người dùng" style="fillColor=none;strokeColor=none;fontSize=23;labelBackgroundColor=none;fontColor=#143642;" vertex="1" parent="1">
          <mxGeometry x="-1328" y="14845" width="260" height="78" as="geometry" />
        </mxCell>
        <mxCell id="W3CPAuRqWTJg_mLWyuju-633" value="Xác thực thông tin đăng nhập của admin" style="fillColor=none;strokeColor=none;fontSize=23;labelBackgroundColor=none;fontColor=#143642;" vertex="1" parent="1">
          <mxGeometry x="-2626" y="13913" width="260" height="78" as="geometry" />
        </mxCell>
        <mxCell id="W3CPAuRqWTJg_mLWyuju-634" value="Đăng nhập thành công?" style="rhombus;strokeWidth=2;whiteSpace=wrap;fontSize=23;labelBackgroundColor=none;fillColor=#FAE5C7;strokeColor=#0F8B8D;fontColor=#143642;" vertex="1" parent="1">
          <mxGeometry x="-2606" y="14041" width="220" height="220" as="geometry" />
        </mxCell>
        <mxCell id="W3CPAuRqWTJg_mLWyuju-635" value="Truy xuất danh sách người dùng" style="fillColor=none;strokeColor=none;fontSize=23;labelBackgroundColor=none;fontColor=#143642;" vertex="1" parent="1">
          <mxGeometry x="-2643" y="14998" width="260" height="78" as="geometry" />
        </mxCell>
        <mxCell id="W3CPAuRqWTJg_mLWyuju-636" value="Thêm người dùng vào cơ sở dữ liệu" style="fillColor=none;strokeColor=none;fontSize=23;labelBackgroundColor=none;fontColor=#143642;" vertex="1" parent="1">
          <mxGeometry x="-2643" y="14589" width="260" height="78" as="geometry" />
        </mxCell>
        <mxCell id="W3CPAuRqWTJg_mLWyuju-637" value="Cập nhật thông tin người dùng" style="fillColor=none;strokeColor=none;fontSize=23;labelBackgroundColor=none;fontColor=#143642;" vertex="1" parent="1">
          <mxGeometry x="-2333" y="14589" width="260" height="78" as="geometry" />
        </mxCell>
        <mxCell id="W3CPAuRqWTJg_mLWyuju-638" value="Xóa người dùng khỏi cơ sở dữ liệu" style="fillColor=none;strokeColor=none;fontSize=23;labelBackgroundColor=none;fontColor=#143642;" vertex="1" parent="1">
          <mxGeometry x="-2953" y="14589" width="260" height="78" as="geometry" />
        </mxCell>
        <mxCell id="W3CPAuRqWTJg_mLWyuju-639" value="Hiển thị thông báo thay đổi thành công" style="fillColor=none;strokeColor=none;fontSize=23;labelBackgroundColor=none;fontColor=#143642;" vertex="1" parent="1">
          <mxGeometry x="-2643" y="14717" width="260" height="78" as="geometry" />
        </mxCell>
        <mxCell id="W3CPAuRqWTJg_mLWyuju-640" value="Hiển thị thông báo lỗi" style="fillColor=none;strokeColor=none;fontSize=23;labelBackgroundColor=none;fontColor=#143642;" vertex="1" parent="1">
          <mxGeometry x="-2632" y="14345" width="217" height="54" as="geometry" />
        </mxCell>
        <mxCell id="W3CPAuRqWTJg_mLWyuju-641" value="" style="startArrow=circle;startFill=0;endArrow=circle;endFill=0;exitX=0.5;exitY=1;entryX=1;entryY=0.39;rounded=0;fontSize=23;labelBackgroundColor=none;strokeColor=#A8201A;fontColor=default;" edge="1" parent="1" source="W3CPAuRqWTJg_mLWyuju-627" target="W3CPAuRqWTJg_mLWyuju-633">
          <mxGeometry relative="1" as="geometry" />
        </mxCell>
        <mxCell id="W3CPAuRqWTJg_mLWyuju-642" value="" style="curved=1;startArrow=none;endArrow=block;exitX=0.5;exitY=1;entryX=0.5;entryY=0;rounded=0;fontSize=23;labelBackgroundColor=none;strokeColor=#A8201A;fontColor=default;" edge="1" parent="1" source="W3CPAuRqWTJg_mLWyuju-633" target="W3CPAuRqWTJg_mLWyuju-634">
          <mxGeometry relative="1" as="geometry">
            <Array as="points" />
          </mxGeometry>
        </mxCell>
        <mxCell id="W3CPAuRqWTJg_mLWyuju-643" value="Có" style="startArrow=none;endArrow=circle;endFill=0;exitX=0.73;exitY=1;entryX=0;entryY=0.36;rounded=0;fontSize=23;labelBackgroundColor=none;strokeColor=#A8201A;fontColor=default;" edge="1" parent="1" source="W3CPAuRqWTJg_mLWyuju-634" target="W3CPAuRqWTJg_mLWyuju-628">
          <mxGeometry relative="1" as="geometry" />
        </mxCell>
        <mxCell id="W3CPAuRqWTJg_mLWyuju-644" value="Không" style="curved=1;startArrow=none;endArrow=circle;endFill=0;exitX=0.41;exitY=1;entryX=0.5;entryY=0;rounded=0;fontSize=23;labelBackgroundColor=none;strokeColor=#A8201A;fontColor=default;" edge="1" parent="1" source="W3CPAuRqWTJg_mLWyuju-634" target="W3CPAuRqWTJg_mLWyuju-640">
          <mxGeometry relative="1" as="geometry">
            <Array as="points">
              <mxPoint x="-2524" y="14297" />
            </Array>
          </mxGeometry>
        </mxCell>
        <mxCell id="W3CPAuRqWTJg_mLWyuju-645" value="" style="startArrow=none;endArrow=circle;endFill=0;exitX=0.16;exitY=1;entryX=0.5;entryY=0;rounded=0;fontSize=23;labelBackgroundColor=none;strokeColor=#A8201A;fontColor=default;" edge="1" parent="1" source="W3CPAuRqWTJg_mLWyuju-628" target="W3CPAuRqWTJg_mLWyuju-629">
          <mxGeometry relative="1" as="geometry" />
        </mxCell>
        <mxCell id="W3CPAuRqWTJg_mLWyuju-646" value="" style="startArrow=none;endArrow=circle;endFill=0;exitX=0.84;exitY=1;entryX=0.5;entryY=0;rounded=0;fontSize=23;labelBackgroundColor=none;strokeColor=#A8201A;fontColor=default;" edge="1" parent="1" source="W3CPAuRqWTJg_mLWyuju-628" target="W3CPAuRqWTJg_mLWyuju-630">
          <mxGeometry relative="1" as="geometry" />
        </mxCell>
        <mxCell id="W3CPAuRqWTJg_mLWyuju-647" value="" style="startArrow=none;endArrow=circle;endFill=0;exitX=0;exitY=0.77;entryX=0.5;entryY=0;rounded=0;fontSize=23;labelBackgroundColor=none;strokeColor=#A8201A;fontColor=default;" edge="1" parent="1" source="W3CPAuRqWTJg_mLWyuju-628" target="W3CPAuRqWTJg_mLWyuju-631">
          <mxGeometry relative="1" as="geometry" />
        </mxCell>
        <mxCell id="W3CPAuRqWTJg_mLWyuju-648" value="" style="startArrow=none;endArrow=circle;endFill=0;exitX=1;exitY=0.84;entryX=0.5;entryY=0;rounded=0;fontSize=23;labelBackgroundColor=none;strokeColor=#A8201A;fontColor=default;" edge="1" parent="1" source="W3CPAuRqWTJg_mLWyuju-628" target="W3CPAuRqWTJg_mLWyuju-632">
          <mxGeometry relative="1" as="geometry" />
        </mxCell>
        <mxCell id="W3CPAuRqWTJg_mLWyuju-649" value="" style="startArrow=none;endArrow=circle;endFill=0;exitX=0.5;exitY=1;entryX=1;entryY=0.38;rounded=0;fontSize=23;labelBackgroundColor=none;strokeColor=#A8201A;fontColor=default;" edge="1" parent="1" source="W3CPAuRqWTJg_mLWyuju-629" target="W3CPAuRqWTJg_mLWyuju-636">
          <mxGeometry relative="1" as="geometry" />
        </mxCell>
        <mxCell id="W3CPAuRqWTJg_mLWyuju-650" value="" style="startArrow=none;endArrow=circle;endFill=0;exitX=0.5;exitY=1;entryX=1;entryY=0.37;rounded=0;fontSize=23;labelBackgroundColor=none;strokeColor=#A8201A;fontColor=default;" edge="1" parent="1" source="W3CPAuRqWTJg_mLWyuju-630" target="W3CPAuRqWTJg_mLWyuju-637">
          <mxGeometry relative="1" as="geometry" />
        </mxCell>
        <mxCell id="W3CPAuRqWTJg_mLWyuju-651" value="" style="startArrow=none;endArrow=circle;endFill=0;exitX=0.5;exitY=1;entryX=1;entryY=0.38;rounded=0;fontSize=23;labelBackgroundColor=none;strokeColor=#A8201A;fontColor=default;" edge="1" parent="1" source="W3CPAuRqWTJg_mLWyuju-631" target="W3CPAuRqWTJg_mLWyuju-638">
          <mxGeometry relative="1" as="geometry" />
        </mxCell>
        <mxCell id="W3CPAuRqWTJg_mLWyuju-652" value="" style="startArrow=none;endArrow=circle;endFill=0;exitX=0.5;exitY=1;entryX=0;entryY=0.16;rounded=0;fontSize=23;labelBackgroundColor=none;strokeColor=#A8201A;fontColor=default;" edge="1" parent="1" source="W3CPAuRqWTJg_mLWyuju-638" target="W3CPAuRqWTJg_mLWyuju-639">
          <mxGeometry relative="1" as="geometry" />
        </mxCell>
        <mxCell id="W3CPAuRqWTJg_mLWyuju-653" value="" style="curved=1;startArrow=none;endArrow=block;exitX=0.5;exitY=1;entryX=0.5;entryY=0;rounded=0;fontSize=23;labelBackgroundColor=none;strokeColor=#A8201A;fontColor=default;" edge="1" parent="1" source="W3CPAuRqWTJg_mLWyuju-636" target="W3CPAuRqWTJg_mLWyuju-639">
          <mxGeometry relative="1" as="geometry">
            <Array as="points" />
          </mxGeometry>
        </mxCell>
        <mxCell id="W3CPAuRqWTJg_mLWyuju-654" value="" style="startArrow=none;endArrow=block;exitX=0.5;exitY=1;entryX=1;entryY=0.16;rounded=0;fontSize=23;labelBackgroundColor=none;strokeColor=#A8201A;fontColor=default;" edge="1" parent="1" source="W3CPAuRqWTJg_mLWyuju-637" target="W3CPAuRqWTJg_mLWyuju-639">
          <mxGeometry relative="1" as="geometry" />
        </mxCell>
        <mxCell id="W3CPAuRqWTJg_mLWyuju-655" value="" style="startArrow=none;endArrow=block;exitX=0.5;exitY=1;entryX=0;entryY=0.42;rounded=0;fontSize=23;labelBackgroundColor=none;strokeColor=#A8201A;fontColor=default;" edge="1" parent="1" source="W3CPAuRqWTJg_mLWyuju-639" target="W3CPAuRqWTJg_mLWyuju-632">
          <mxGeometry relative="1" as="geometry" />
        </mxCell>
        <mxCell id="W3CPAuRqWTJg_mLWyuju-656" value="" style="startArrow=none;endArrow=circle;endFill=0;exitX=0.5;exitY=1;entryX=0.5;entryY=0;rounded=0;fontSize=23;labelBackgroundColor=none;strokeColor=#A8201A;fontColor=default;" edge="1" parent="1" source="W3CPAuRqWTJg_mLWyuju-632" target="W3CPAuRqWTJg_mLWyuju-635">
          <mxGeometry relative="1" as="geometry" />
        </mxCell>
        <mxCell id="W3CPAuRqWTJg_mLWyuju-658" value="&lt;font&gt;HỆ THỐNG&lt;/font&gt;" style="text;align=center;fontStyle=1;verticalAlign=middle;spacingLeft=3;spacingRight=3;strokeColor=#0F8B8D;rotatable=0;points=[[0,0.5],[1,0.5]];portConstraint=eastwest;html=1;fillColor=#FAE5C7;labelBackgroundColor=none;fontSize=28;fontColor=#143642;" vertex="1" parent="1">
          <mxGeometry x="-2668" y="13859" width="318.5" height="26" as="geometry" />
        </mxCell>
        <mxCell id="W3CPAuRqWTJg_mLWyuju-659" value="ADMIN" style="text;align=center;fontStyle=1;verticalAlign=middle;spacingLeft=3;spacingRight=3;strokeColor=#0F8B8D;rotatable=0;points=[[0,0.5],[1,0.5]];portConstraint=eastwest;html=1;fontSize=29;fillColor=#FAE5C7;labelBackgroundColor=none;fontColor=#143642;" vertex="1" parent="1">
          <mxGeometry x="-1630" y="13708" width="261.5" height="24" as="geometry" />
        </mxCell>
        <mxCell id="W3CPAuRqWTJg_mLWyuju-661" value="Hệ thống" style="whiteSpace=wrap;strokeWidth=2;fontSize=20;labelBackgroundColor=none;fillColor=#FAE5C7;strokeColor=#0F8B8D;fontColor=#143642;" vertex="1" parent="1">
          <mxGeometry x="20" y="15275" width="950" height="1213" as="geometry" />
        </mxCell>
        <mxCell id="W3CPAuRqWTJg_mLWyuju-662" value="Admin" style="whiteSpace=wrap;strokeWidth=2;fontSize=20;labelBackgroundColor=none;fillColor=#FAE5C7;strokeColor=#0F8B8D;fontColor=#143642;" vertex="1" parent="1">
          <mxGeometry x="990" y="15122" width="963" height="1213" as="geometry" />
        </mxCell>
        <mxCell id="W3CPAuRqWTJg_mLWyuju-663" value="Đăng nhập vào hệ thống quản lý" style="fillColor=none;strokeColor=none;fontSize=20;labelBackgroundColor=none;fontColor=#143642;" vertex="1" parent="1">
          <mxGeometry x="1342" y="15147" width="260" height="78" as="geometry" />
        </mxCell>
        <mxCell id="W3CPAuRqWTJg_mLWyuju-664" value="Truy cập mục Quản lý sản phẩm" style="fillColor=none;strokeColor=none;fontSize=20;labelBackgroundColor=none;fontColor=#143642;" vertex="1" parent="1">
          <mxGeometry x="1352" y="15720" width="260" height="78" as="geometry" />
        </mxCell>
        <mxCell id="W3CPAuRqWTJg_mLWyuju-665" value="Thêm sản phẩm mới" style="fillColor=none;strokeColor=none;fontSize=20;labelBackgroundColor=none;fontColor=#143642;" vertex="1" parent="1">
          <mxGeometry x="1236" y="15860" width="207" height="54" as="geometry" />
        </mxCell>
        <mxCell id="W3CPAuRqWTJg_mLWyuju-666" value="Cập nhật thông tin sản phẩm" style="fillColor=none;strokeColor=none;fontSize=20;labelBackgroundColor=none;fontColor=#143642;" vertex="1" parent="1">
          <mxGeometry x="1493" y="15848" width="260" height="78" as="geometry" />
        </mxCell>
        <mxCell id="W3CPAuRqWTJg_mLWyuju-667" value="Xóa sản phẩm" style="fillColor=none;strokeColor=none;fontSize=20;labelBackgroundColor=none;fontColor=#143642;" vertex="1" parent="1">
          <mxGeometry x="1025" y="15860" width="161" height="54" as="geometry" />
        </mxCell>
        <mxCell id="W3CPAuRqWTJg_mLWyuju-668" value="Hiển thị danh sách sản phẩm" style="fillColor=none;strokeColor=none;fontSize=20;labelBackgroundColor=none;fontColor=#143642;" vertex="1" parent="1">
          <mxGeometry x="1658" y="16232" width="260" height="78" as="geometry" />
        </mxCell>
        <mxCell id="W3CPAuRqWTJg_mLWyuju-669" value="Xác thực thông tin đăng nhập của admin" style="fillColor=none;strokeColor=none;fontSize=20;labelBackgroundColor=none;fontColor=#143642;" vertex="1" parent="1">
          <mxGeometry x="382" y="15300" width="260" height="78" as="geometry" />
        </mxCell>
        <mxCell id="W3CPAuRqWTJg_mLWyuju-670" value="Đăng nhập thành công?" style="rhombus;strokeWidth=2;whiteSpace=wrap;fontSize=20;labelBackgroundColor=none;fillColor=#FAE5C7;strokeColor=#0F8B8D;fontColor=#143642;" vertex="1" parent="1">
          <mxGeometry x="402" y="15428" width="220" height="220" as="geometry" />
        </mxCell>
        <mxCell id="W3CPAuRqWTJg_mLWyuju-671" value="Truy xuất danh sách sản phẩm" style="fillColor=none;strokeColor=none;fontSize=20;labelBackgroundColor=none;fontColor=#143642;" vertex="1" parent="1">
          <mxGeometry x="365" y="16385" width="260" height="78" as="geometry" />
        </mxCell>
        <mxCell id="W3CPAuRqWTJg_mLWyuju-672" value="Thêm sản phẩm vào cơ sở dữ liệu" style="fillColor=none;strokeColor=none;fontSize=20;labelBackgroundColor=none;fontColor=#143642;" vertex="1" parent="1">
          <mxGeometry x="365" y="15976" width="260" height="78" as="geometry" />
        </mxCell>
        <mxCell id="W3CPAuRqWTJg_mLWyuju-673" value="Cập nhật thông tin sản phẩm" style="fillColor=none;strokeColor=none;fontSize=20;labelBackgroundColor=none;fontColor=#143642;" vertex="1" parent="1">
          <mxGeometry x="675" y="15976" width="260" height="78" as="geometry" />
        </mxCell>
        <mxCell id="W3CPAuRqWTJg_mLWyuju-674" value="Xóa sản phẩm khỏi cơ sở dữ liệu" style="fillColor=none;strokeColor=none;fontSize=20;labelBackgroundColor=none;fontColor=#143642;" vertex="1" parent="1">
          <mxGeometry x="55" y="15976" width="260" height="78" as="geometry" />
        </mxCell>
        <mxCell id="W3CPAuRqWTJg_mLWyuju-675" value="Hiển thị thông báo thay đổi thành công" style="fillColor=none;strokeColor=none;fontSize=20;labelBackgroundColor=none;fontColor=#143642;" vertex="1" parent="1">
          <mxGeometry x="365" y="16104" width="260" height="78" as="geometry" />
        </mxCell>
        <mxCell id="W3CPAuRqWTJg_mLWyuju-676" value="Hiển thị thông báo lỗi" style="fillColor=none;strokeColor=none;fontSize=20;labelBackgroundColor=none;fontColor=#143642;" vertex="1" parent="1">
          <mxGeometry x="376" y="15732" width="217" height="54" as="geometry" />
        </mxCell>
        <mxCell id="W3CPAuRqWTJg_mLWyuju-677" value="" style="startArrow=circle;startFill=0;endArrow=circle;endFill=0;exitX=0.5;exitY=1;entryX=1;entryY=0.39;rounded=0;fontSize=20;labelBackgroundColor=none;strokeColor=#A8201A;fontColor=default;" edge="1" parent="1" source="W3CPAuRqWTJg_mLWyuju-663" target="W3CPAuRqWTJg_mLWyuju-669">
          <mxGeometry relative="1" as="geometry" />
        </mxCell>
        <mxCell id="W3CPAuRqWTJg_mLWyuju-678" value="" style="curved=1;startArrow=none;endArrow=block;exitX=0.5;exitY=1;entryX=0.5;entryY=0;rounded=0;fontSize=20;labelBackgroundColor=none;strokeColor=#A8201A;fontColor=default;" edge="1" parent="1" source="W3CPAuRqWTJg_mLWyuju-669" target="W3CPAuRqWTJg_mLWyuju-670">
          <mxGeometry relative="1" as="geometry">
            <Array as="points" />
          </mxGeometry>
        </mxCell>
        <mxCell id="W3CPAuRqWTJg_mLWyuju-679" value="Có" style="startArrow=none;endArrow=circle;endFill=0;exitX=0.73;exitY=1;entryX=0;entryY=0.36;rounded=0;fontSize=20;labelBackgroundColor=none;strokeColor=#A8201A;fontColor=default;" edge="1" parent="1" source="W3CPAuRqWTJg_mLWyuju-670" target="W3CPAuRqWTJg_mLWyuju-664">
          <mxGeometry relative="1" as="geometry" />
        </mxCell>
        <mxCell id="W3CPAuRqWTJg_mLWyuju-680" value="Không" style="startArrow=none;endArrow=circle;endFill=0;exitX=0.41;exitY=1;entryX=0.5;entryY=0;rounded=0;fontSize=20;labelBackgroundColor=none;strokeColor=#A8201A;fontColor=default;" edge="1" parent="1" source="W3CPAuRqWTJg_mLWyuju-670" target="W3CPAuRqWTJg_mLWyuju-676">
          <mxGeometry relative="1" as="geometry" />
        </mxCell>
        <mxCell id="W3CPAuRqWTJg_mLWyuju-681" value="" style="startArrow=none;endArrow=circle;endFill=0;exitX=0.17;exitY=1;entryX=0.5;entryY=0;rounded=0;fontSize=20;labelBackgroundColor=none;strokeColor=#A8201A;fontColor=default;" edge="1" parent="1" source="W3CPAuRqWTJg_mLWyuju-664" target="W3CPAuRqWTJg_mLWyuju-665">
          <mxGeometry relative="1" as="geometry" />
        </mxCell>
        <mxCell id="W3CPAuRqWTJg_mLWyuju-682" value="" style="startArrow=none;endArrow=circle;endFill=0;exitX=0.83;exitY=1;entryX=0.5;entryY=0;rounded=0;fontSize=20;labelBackgroundColor=none;strokeColor=#A8201A;fontColor=default;" edge="1" parent="1" source="W3CPAuRqWTJg_mLWyuju-664" target="W3CPAuRqWTJg_mLWyuju-666">
          <mxGeometry relative="1" as="geometry" />
        </mxCell>
        <mxCell id="W3CPAuRqWTJg_mLWyuju-683" value="" style="startArrow=none;endArrow=circle;endFill=0;exitX=0;exitY=0.78;entryX=0.5;entryY=0;rounded=0;fontSize=20;labelBackgroundColor=none;strokeColor=#A8201A;fontColor=default;" edge="1" parent="1" source="W3CPAuRqWTJg_mLWyuju-664" target="W3CPAuRqWTJg_mLWyuju-667">
          <mxGeometry relative="1" as="geometry" />
        </mxCell>
        <mxCell id="W3CPAuRqWTJg_mLWyuju-684" value="" style="startArrow=none;endArrow=circle;endFill=0;exitX=1;exitY=0.85;entryX=0.5;entryY=0;rounded=0;fontSize=20;labelBackgroundColor=none;strokeColor=#A8201A;fontColor=default;" edge="1" parent="1" source="W3CPAuRqWTJg_mLWyuju-664" target="W3CPAuRqWTJg_mLWyuju-668">
          <mxGeometry relative="1" as="geometry" />
        </mxCell>
        <mxCell id="W3CPAuRqWTJg_mLWyuju-685" value="" style="startArrow=none;endArrow=circle;endFill=0;exitX=0.5;exitY=1;entryX=1;entryY=0.37;rounded=0;fontSize=20;labelBackgroundColor=none;strokeColor=#A8201A;fontColor=default;" edge="1" parent="1" source="W3CPAuRqWTJg_mLWyuju-665" target="W3CPAuRqWTJg_mLWyuju-672">
          <mxGeometry relative="1" as="geometry" />
        </mxCell>
        <mxCell id="W3CPAuRqWTJg_mLWyuju-686" value="" style="startArrow=none;endArrow=circle;endFill=0;exitX=0.5;exitY=1;entryX=1;entryY=0.37;rounded=0;fontSize=20;labelBackgroundColor=none;strokeColor=#A8201A;fontColor=default;" edge="1" parent="1" source="W3CPAuRqWTJg_mLWyuju-666" target="W3CPAuRqWTJg_mLWyuju-673">
          <mxGeometry relative="1" as="geometry" />
        </mxCell>
        <mxCell id="W3CPAuRqWTJg_mLWyuju-687" value="" style="startArrow=none;endArrow=circle;endFill=0;exitX=0.5;exitY=1;entryX=1;entryY=0.38;rounded=0;fontSize=20;labelBackgroundColor=none;strokeColor=#A8201A;fontColor=default;" edge="1" parent="1" source="W3CPAuRqWTJg_mLWyuju-667" target="W3CPAuRqWTJg_mLWyuju-674">
          <mxGeometry relative="1" as="geometry" />
        </mxCell>
        <mxCell id="W3CPAuRqWTJg_mLWyuju-688" value="" style="startArrow=none;endArrow=circle;endFill=0;exitX=0.5;exitY=1;entryX=0;entryY=0.16;rounded=0;fontSize=20;labelBackgroundColor=none;strokeColor=#A8201A;fontColor=default;" edge="1" parent="1" source="W3CPAuRqWTJg_mLWyuju-674" target="W3CPAuRqWTJg_mLWyuju-675">
          <mxGeometry relative="1" as="geometry" />
        </mxCell>
        <mxCell id="W3CPAuRqWTJg_mLWyuju-689" value="" style="curved=1;startArrow=none;endArrow=block;exitX=0.5;exitY=1;entryX=0.5;entryY=0;rounded=0;fontSize=20;labelBackgroundColor=none;strokeColor=#A8201A;fontColor=default;" edge="1" parent="1" source="W3CPAuRqWTJg_mLWyuju-672" target="W3CPAuRqWTJg_mLWyuju-675">
          <mxGeometry relative="1" as="geometry">
            <Array as="points" />
          </mxGeometry>
        </mxCell>
        <mxCell id="W3CPAuRqWTJg_mLWyuju-690" value="" style="startArrow=none;endArrow=block;exitX=0.5;exitY=1;entryX=1;entryY=0.16;rounded=0;fontSize=20;labelBackgroundColor=none;strokeColor=#A8201A;fontColor=default;" edge="1" parent="1" source="W3CPAuRqWTJg_mLWyuju-673" target="W3CPAuRqWTJg_mLWyuju-675">
          <mxGeometry relative="1" as="geometry" />
        </mxCell>
        <mxCell id="W3CPAuRqWTJg_mLWyuju-691" value="" style="startArrow=none;endArrow=block;exitX=0.5;exitY=1;entryX=0;entryY=0.42;rounded=0;fontSize=20;labelBackgroundColor=none;strokeColor=#A8201A;fontColor=default;" edge="1" parent="1" source="W3CPAuRqWTJg_mLWyuju-675" target="W3CPAuRqWTJg_mLWyuju-668">
          <mxGeometry relative="1" as="geometry" />
        </mxCell>
        <mxCell id="W3CPAuRqWTJg_mLWyuju-692" value="" style="startArrow=none;endArrow=circle;endFill=0;exitX=0.5;exitY=1;entryX=0.5;entryY=0;rounded=0;fontSize=20;labelBackgroundColor=none;strokeColor=#A8201A;fontColor=default;" edge="1" parent="1" source="W3CPAuRqWTJg_mLWyuju-668" target="W3CPAuRqWTJg_mLWyuju-671">
          <mxGeometry relative="1" as="geometry" />
        </mxCell>
        <mxCell id="W3CPAuRqWTJg_mLWyuju-693" value="&lt;font&gt;HỆ THỐNG&lt;/font&gt;" style="text;align=center;fontStyle=1;verticalAlign=middle;spacingLeft=3;spacingRight=3;strokeColor=#6c8ebf;rotatable=0;points=[[0,0.5],[1,0.5]];portConstraint=eastwest;html=1;fillColor=#dae8fc;labelBackgroundColor=none;fontSize=28;" vertex="1" parent="1">
          <mxGeometry x="346.5" y="15249" width="318.5" height="26" as="geometry" />
        </mxCell>
        <mxCell id="W3CPAuRqWTJg_mLWyuju-694" value="ADMIN" style="text;align=center;fontStyle=1;verticalAlign=middle;spacingLeft=3;spacingRight=3;strokeColor=#6c8ebf;rotatable=0;points=[[0,0.5],[1,0.5]];portConstraint=eastwest;html=1;fontSize=24;fillColor=#dae8fc;labelBackgroundColor=none;" vertex="1" parent="1">
          <mxGeometry x="1357" y="15095" width="261.5" height="24" as="geometry" />
        </mxCell>
      </root>
    </mxGraphModel>
  </diagram>
</mxfile>
